{"glyphs":{"0":{"ha":839,"x_min":76,"x_max":763,"o":"m 419 669 q 276 597 325 669 q 228 393 228 524 q 276 190 228 263 q 419 118 325 118 q 563 190 514 118 q 611 393 611 263 q 563 597 611 524 q 419 669 514 669 m 419 800 q 570 770 506 800 q 677 687 635 740 q 741 558 719 633 q 763 393 763 483 q 741 230 763 304 q 677 101 719 156 q 570 17 635 47 q 419 -12 506 -12 q 269 17 333 -12 q 162 101 204 47 q 98 230 119 156 q 76 393 76 304 q 98 558 76 483 q 162 687 119 633 q 269 770 204 740 q 419 800 333 800 z "},"1":{"ha":485,"x_min":61,"x_max":353,"o":"m 353 782 l 353 0 l 204 0 l 204 603 q 61 565 131 567 l 61 708 q 151 732 107 715 q 239 782 194 749 l 353 782 z "},"2":{"ha":819,"x_min":85,"x_max":728,"o":"m 235 138 l 728 138 l 728 0 l 85 0 l 85 131 q 138 306 85 247 q 299 392 190 365 l 433 424 q 542 474 510 443 q 574 557 574 506 q 535 634 574 601 q 429 667 497 667 q 317 639 360 667 q 267 551 274 611 l 100 551 q 126 659 101 613 q 192 737 150 706 q 293 784 235 768 q 422 800 351 800 q 547 781 490 800 q 642 728 603 761 q 703 649 682 694 q 725 554 725 604 q 672 403 725 458 q 500 319 618 349 l 350 283 q 261 240 288 268 q 235 174 235 213 l 235 138 z "},"3":{"ha":808,"x_min":32,"x_max":717,"o":"m 372 800 q 502 781 444 800 q 600 730 560 763 q 662 653 640 697 q 683 557 683 608 q 645 439 683 486 q 538 364 607 392 q 669 267 622 333 q 717 113 717 200 q 692 2 717 53 q 622 -85 667 -49 q 514 -143 578 -122 q 374 -164 450 -164 q 244 -147 306 -164 q 135 -92 182 -129 q 60 -1 88 -56 q 32 129 32 54 l 183 129 q 241 2 188 42 q 374 -37 294 -37 q 451 -25 415 -37 q 511 9 486 -12 q 551 60 536 31 q 565 125 565 90 q 515 242 565 194 q 364 289 464 289 l 274 289 l 274 408 l 353 408 q 485 442 436 408 q 533 542 533 476 q 492 635 533 599 q 376 672 450 672 q 265 641 310 672 q 210 551 221 610 l 50 551 q 85 665 58 618 q 153 742 111 713 q 251 786 196 772 q 372 800 307 800 z "},"4":{"ha":817,"x_min":26,"x_max":788,"o":"m 633 788 l 633 199 l 788 199 l 788 69 l 633 69 l 633 -147 l 482 -147 l 482 69 l 26 69 l 26 183 l 488 788 l 633 788 m 192 183 l 490 183 l 490 564 l 192 183 z "},"5":{"ha":811,"x_min":82,"x_max":733,"o":"m 690 793 l 690 657 l 311 657 l 288 432 q 418 449 351 449 q 549 428 490 449 q 649 369 608 407 q 711 277 689 331 q 733 157 733 224 q 707 28 733 88 q 635 -74 681 -31 q 526 -140 589 -117 q 389 -164 463 -164 q 273 -145 328 -164 q 175 -90 218 -126 q 107 -1 132 -54 q 82 121 82 51 l 229 121 q 274 10 229 49 q 392 -28 318 -28 q 469 -15 433 -28 q 530 23 504 -1 q 570 81 556 47 q 585 157 585 115 q 533 281 585 236 q 378 326 482 326 l 131 326 l 172 793 l 690 793 z "},"6":{"ha":824,"x_min":60,"x_max":751,"o":"m 583 654 q 542 743 575 711 q 447 775 510 775 q 348 750 392 775 q 274 678 304 725 q 226 566 243 632 q 210 417 210 500 q 211 368 210 394 q 217 318 213 342 q 247 427 224 383 q 305 497 271 471 q 381 535 339 524 q 467 546 422 546 q 581 525 529 546 q 672 467 633 504 q 731 377 710 429 q 751 263 751 325 q 728 148 751 200 q 663 59 706 96 q 563 2 621 22 q 433 -18 504 -18 q 281 16 350 -18 q 163 110 211 50 q 87 252 114 169 q 60 432 60 335 q 87 635 60 546 q 164 786 114 725 q 285 879 214 847 q 443 911 356 911 q 562 892 508 911 q 654 840 615 874 q 716 760 693 807 q 743 654 739 713 l 583 654 m 433 421 q 317 379 364 421 q 269 271 269 338 q 317 160 269 200 q 433 119 364 119 q 550 160 503 119 q 597 271 597 200 q 550 381 597 342 q 433 421 503 421 z "},"7":{"ha":682,"x_min":33,"x_max":657,"o":"m 657 800 l 657 669 l 240 -142 l 57 -142 l 501 667 l 33 667 l 33 800 l 657 800 z "},"8":{"ha":888,"x_min":69,"x_max":817,"o":"m 443 911 q 578 892 515 911 q 686 840 640 874 q 758 759 732 806 q 785 657 785 713 q 737 533 785 586 q 599 464 689 479 l 614 458 q 764 372 711 422 q 817 233 817 322 q 792 132 817 178 q 719 53 767 86 q 601 1 671 19 q 443 -18 532 -18 q 290 1 358 -18 q 172 56 221 21 q 96 138 122 90 q 69 240 69 185 q 128 378 69 326 q 279 443 186 431 q 215 478 247 457 q 158 526 183 499 q 116 590 132 554 q 100 669 100 625 q 190 846 100 781 q 443 911 279 911 m 410 392 q 276 346 328 385 q 225 256 225 307 q 242 198 225 224 q 289 155 260 172 q 358 128 318 138 q 443 119 397 119 q 607 149 551 119 q 663 226 663 178 q 635 290 663 264 q 558 335 607 317 l 410 392 m 256 663 q 281 602 256 625 q 354 560 306 579 l 457 519 q 578 556 528 522 q 629 647 629 590 q 578 740 629 706 q 443 775 526 775 q 369 767 403 775 q 310 743 335 758 q 270 707 285 728 q 256 663 256 686 z "},"9":{"ha":829,"x_min":67,"x_max":757,"o":"m 383 800 q 546 760 476 800 q 663 655 615 721 q 733 503 710 589 q 757 325 757 417 q 731 119 757 210 q 658 -35 706 28 q 542 -131 610 -97 q 389 -164 474 -164 q 265 -143 322 -164 q 165 -85 207 -122 q 100 3 124 -49 q 76 117 76 54 l 235 117 q 276 11 238 50 q 389 -28 314 -28 q 488 -2 446 -28 q 556 72 529 24 q 594 188 582 119 q 607 340 607 256 q 603 440 607 392 q 522 280 588 336 q 363 224 457 224 q 247 245 300 224 q 153 304 193 267 q 90 394 113 342 q 67 508 67 446 q 90 624 67 571 q 154 717 113 678 q 254 778 196 756 q 383 800 313 800 m 383 667 q 265 622 308 667 q 222 508 222 578 q 265 392 222 436 q 385 349 308 349 q 504 395 460 349 q 549 508 549 442 q 504 622 549 578 q 383 667 460 667 z "}," ":{"ha":343,"x_min":0,"x_max":0,"o":""},",":{"ha":385,"x_min":68,"x_max":317,"o":"m 200 176 q 285 136 254 176 q 317 36 317 96 q 307 -25 317 7 q 279 -86 297 -57 q 234 -141 261 -115 q 174 -185 207 -167 l 68 -128 q 143 -75 111 -104 q 186 -7 175 -46 q 125 22 150 -1 q 100 83 100 44 q 128 150 100 124 q 200 176 156 176 z "},".":{"ha":303,"x_min":49,"x_max":254,"o":"m 149 192 q 224 163 194 192 q 254 89 254 133 q 224 16 254 44 q 149 -12 194 -12 q 76 16 104 -12 q 49 89 49 44 q 76 163 49 133 q 149 192 104 192 z "},";":{"ha":379,"x_min":63,"x_max":311,"o":"m 194 176 q 280 136 249 176 q 311 36 311 96 q 301 -25 311 7 q 274 -86 292 -57 q 228 -141 256 -115 q 168 -185 201 -167 l 63 -128 q 138 -75 106 -104 q 181 -7 169 -46 q 119 22 144 -1 q 94 83 94 44 q 122 150 94 124 q 194 176 150 176 m 200 682 q 276 653 246 682 q 306 579 306 624 q 276 506 306 535 q 200 478 246 478 q 128 506 156 478 q 100 579 100 535 q 128 653 100 624 q 200 682 156 682 z "},":":{"ha":346,"x_min":71,"x_max":276,"o":"m 171 682 q 246 653 215 682 q 276 579 276 624 q 246 507 276 535 q 171 479 215 479 q 99 507 126 479 q 71 579 71 535 q 99 653 71 624 q 171 682 126 682 m 171 192 q 246 163 215 192 q 276 89 276 133 q 246 16 276 44 q 171 -12 215 -12 q 99 16 126 -12 q 71 89 71 44 q 99 163 71 133 q 171 192 126 192 z "},"‘":{"ha":346,"x_min":50,"x_max":300,"o":"m 168 578 q 83 618 115 578 q 50 718 50 658 q 90 842 50 781 q 200 939 131 903 l 300 882 q 225 828 257 858 q 182 760 193 799 q 242 731 218 754 q 267 671 267 708 q 240 604 267 631 q 168 578 213 578 z "},"’":{"ha":346,"x_min":50,"x_max":300,"o":"m 183 939 q 268 898 236 939 q 300 797 300 857 q 260 674 300 735 q 150 578 219 614 l 50 635 q 126 687 94 657 q 169 756 158 717 q 108 783 133 760 q 83 844 83 807 q 111 912 83 885 q 183 939 139 939 z "},"'":{"ha":257,"x_min":57,"x_max":200,"o":"m 200 989 l 182 654 l 76 654 l 57 989 l 200 989 z "},"-":{"ha":536,"x_min":76,"x_max":460,"o":"m 460 499 l 460 369 l 76 369 l 76 499 l 460 499 z "},"–":{"ha":701,"x_min":76,"x_max":625,"o":"m 625 499 l 625 369 l 76 369 l 76 499 l 625 499 z "},"—":{"ha":1044,"x_min":76,"x_max":969,"o":"m 969 499 l 969 369 l 76 369 l 76 499 l 969 499 z "},"!":{"ha":399,"x_min":103,"x_max":307,"o":"m 279 947 l 267 296 l 140 296 l 126 947 l 279 947 m 204 192 q 278 163 249 192 q 307 89 307 133 q 278 16 307 44 q 204 -12 249 -12 q 131 16 160 -12 q 103 89 103 44 q 131 163 103 133 q 204 192 160 192 z "},"?":{"ha":717,"x_min":44,"x_max":667,"o":"m 363 929 q 493 909 436 929 q 588 855 550 889 q 647 776 626 821 q 667 683 667 732 q 630 563 667 611 q 518 474 593 514 q 458 438 482 454 q 420 404 435 422 q 399 365 406 386 q 393 314 393 343 l 393 282 l 260 282 l 260 329 q 267 405 260 374 q 289 460 274 436 q 331 504 304 485 q 394 543 357 524 q 454 577 431 561 q 491 609 478 593 q 510 642 504 625 q 515 682 515 660 q 477 765 515 731 q 368 799 439 799 q 251 765 293 799 q 197 675 208 731 l 44 675 q 139 862 54 794 q 363 929 224 929 m 336 190 q 415 162 383 190 q 446 89 446 133 q 415 16 446 44 q 336 -12 383 -12 q 260 16 289 -12 q 231 89 231 44 q 260 162 231 133 q 336 190 289 190 z "},"/":{"ha":608,"x_min":86,"x_max":597,"o":"m 443 1033 l 597 1033 l 240 -111 l 86 -111 l 443 1033 z "},"\\":{"ha":608,"x_min":10,"x_max":521,"o":"m 10 1033 l 164 1033 l 521 -111 l 367 -111 l 10 1033 z "},"+":{"ha":849,"x_min":76,"x_max":772,"o":"m 496 717 l 496 424 l 772 424 l 772 294 l 496 294 l 496 0 l 353 0 l 353 294 l 76 294 l 76 424 l 353 424 l 353 717 l 496 717 z "},"−":{"ha":693,"x_min":110,"x_max":583,"o":"m 583 421 l 583 290 l 110 290 l 110 421 l 583 421 z "},"=":{"ha":693,"x_min":110,"x_max":583,"o":"m 583 282 l 583 153 l 110 153 l 110 282 l 583 282 m 583 578 l 583 449 l 110 449 l 110 578 l 583 578 z "},"(":{"ha":474,"x_min":83,"x_max":390,"o":"m 390 836 q 266 606 303 722 q 229 364 229 490 q 266 122 229 238 q 390 -107 303 6 l 281 -174 q 83 364 83 76 q 281 900 83 653 l 390 836 z "},")":{"ha":464,"x_min":85,"x_max":392,"o":"m 194 900 q 392 364 392 653 q 194 -174 392 76 l 85 -107 q 209 122 172 6 q 246 364 246 238 q 209 606 246 490 q 85 836 172 722 l 194 900 z "},"[":{"ha":486,"x_min":131,"x_max":451,"o":"m 131 1092 l 451 1092 l 451 961 l 274 961 l 274 -47 l 451 -47 l 451 -178 l 131 -178 l 131 1092 z "},"]":{"ha":463,"x_min":11,"x_max":332,"o":"m 332 -178 l 11 -178 l 11 -47 l 189 -47 l 189 961 l 11 961 l 11 1092 l 332 1092 l 332 -178 z "},"_":{"ha":1064,"x_min":76,"x_max":988,"o":"m 76 -60 l 988 -60 l 988 -192 l 76 -192 l 76 -60 z "},"@":{"ha":1390,"x_min":69,"x_max":1317,"o":"m 806 354 q 791 420 806 394 q 735 446 776 446 q 674 431 706 446 q 618 390 643 417 q 576 326 593 364 q 560 240 560 288 q 591 142 560 181 q 671 103 622 103 q 748 135 718 103 q 806 221 778 168 l 806 354 m 756 872 q 979 835 876 872 q 1157 733 1082 799 q 1274 574 1232 667 q 1317 372 1317 482 q 1290 213 1317 283 q 1219 92 1264 142 q 1115 15 1175 42 q 988 -12 1056 -12 q 813 100 856 -12 q 747 18 786 49 q 638 -12 707 -12 q 553 6 594 -12 q 480 58 513 25 q 428 138 447 92 q 408 238 408 183 q 435 369 408 308 q 508 476 463 431 q 615 549 554 522 q 740 575 675 575 q 823 561 785 575 q 889 519 861 547 q 933 451 917 492 q 949 357 949 411 l 949 176 q 1003 103 949 103 q 1057 119 1028 103 q 1110 169 1086 136 q 1149 251 1133 203 q 1165 364 1165 300 q 1138 515 1165 446 q 1056 635 1110 585 q 927 715 1003 686 q 756 743 851 743 q 550 706 647 743 q 379 603 453 669 q 263 447 306 538 q 219 250 219 357 q 258 64 219 146 q 367 -74 296 -18 q 541 -160 439 -131 q 771 -190 643 -190 l 771 -317 q 497 -277 625 -317 q 274 -162 368 -237 q 124 22 179 -87 q 69 274 69 132 q 124 513 69 403 q 271 702 178 622 q 489 827 364 782 q 756 872 614 872 z "},"\"":{"ha":525,"x_min":44,"x_max":482,"o":"m 206 951 l 183 622 l 65 622 l 44 951 l 206 951 m 482 951 l 460 622 l 342 622 l 319 951 l 482 951 z "},"#":{"ha":938,"x_min":78,"x_max":875,"o":"m 547 228 l 351 228 l 332 46 l 188 46 l 206 228 l 78 228 l 88 333 l 217 333 l 240 554 l 111 554 l 122 660 l 251 660 l 271 842 l 417 842 l 397 660 l 593 660 l 613 842 l 757 842 l 738 660 l 875 660 l 864 554 l 726 554 l 703 333 l 840 333 l 831 228 l 692 228 l 672 46 l 528 46 l 547 228 m 363 333 l 558 333 l 582 554 l 386 554 l 363 333 z "},"$":{"ha":953,"x_min":107,"x_max":850,"o":"m 622 478 q 790 392 729 446 q 850 242 850 338 q 828 149 850 192 q 765 72 806 106 q 665 17 724 39 q 535 -10 607 -4 l 535 -149 l 419 -149 l 419 -10 q 300 17 357 -4 q 201 74 243 38 q 133 165 158 111 q 107 290 107 218 l 249 290 q 292 169 251 219 q 419 104 333 119 l 419 406 l 350 431 q 180 526 233 469 q 126 672 126 583 q 149 765 126 724 q 210 835 171 806 q 303 883 249 865 q 419 908 357 901 l 419 1042 l 535 1042 l 535 910 q 638 886 590 904 q 724 835 686 868 q 786 756 761 803 q 818 647 811 710 l 675 647 q 632 745 667 707 q 535 794 597 783 l 535 504 l 622 478 m 699 236 q 590 351 699 318 l 535 368 l 535 103 q 656 152 614 114 q 699 236 699 190 m 276 671 q 304 599 276 625 q 386 554 332 574 l 419 543 l 419 794 q 313 749 349 783 q 276 671 276 715 z "},"%":{"ha":1058,"x_min":85,"x_max":983,"o":"m 274 918 q 346 905 311 918 q 407 866 381 892 q 449 801 433 840 q 464 708 464 761 q 449 616 464 656 q 407 551 433 576 q 346 512 381 525 q 274 499 311 499 q 201 512 236 499 q 141 551 167 525 q 100 616 115 576 q 85 708 85 656 q 100 801 85 761 q 141 866 115 840 q 201 905 167 892 q 274 918 236 918 m 274 815 q 223 791 242 815 q 204 708 204 767 q 223 626 204 650 q 274 601 242 601 q 323 626 304 601 q 342 708 342 650 q 323 791 342 767 q 274 815 304 815 m 757 900 l 919 900 l 311 0 l 149 0 l 757 900 m 793 401 q 865 388 831 401 q 926 349 900 375 q 968 284 953 324 q 983 192 983 244 q 968 99 983 139 q 926 33 953 60 q 865 -6 900 7 q 793 -18 831 -18 q 721 -6 756 -18 q 660 33 686 7 q 619 99 635 60 q 604 192 604 139 q 619 284 604 244 q 660 349 635 324 q 721 388 686 375 q 793 401 756 401 m 793 300 q 743 275 761 300 q 725 192 725 250 q 743 109 725 133 q 793 85 761 85 q 843 109 824 85 q 863 192 863 133 q 843 275 863 250 q 793 300 824 300 z "},"&":{"ha":1194,"x_min":96,"x_max":1153,"o":"m 1153 225 q 1100 51 1150 115 q 950 -12 1050 -12 q 830 13 886 -12 q 713 97 774 38 q 581 16 651 44 q 422 -12 510 -12 q 295 6 354 -12 q 192 58 236 25 q 122 139 147 92 q 96 243 96 186 q 322 468 96 422 q 242 578 269 525 q 215 690 215 631 q 235 777 215 736 q 290 848 254 818 q 378 895 326 878 q 493 913 429 913 q 600 894 551 913 q 683 844 649 875 q 737 773 718 814 q 756 689 756 732 q 707 547 756 608 q 547 438 658 485 l 713 281 q 850 513 786 375 l 956 456 q 882 314 919 379 q 803 194 844 249 l 833 167 q 888 126 865 138 q 938 114 911 114 q 997 142 972 114 q 1024 225 1021 171 l 1153 225 m 242 243 q 286 150 242 188 q 414 113 331 113 q 520 131 469 113 q 618 186 571 150 l 410 383 q 280 332 318 368 q 242 243 242 296 m 610 682 q 578 757 610 726 q 494 788 546 788 q 403 754 436 788 q 371 676 371 721 q 435 544 371 604 l 465 515 q 576 590 542 550 q 610 682 610 631 z "},"*":{"ha":568,"x_min":69,"x_max":506,"o":"m 225 733 l 69 785 l 111 881 l 249 810 l 232 976 l 343 976 l 326 810 l 464 882 l 506 785 l 353 733 l 472 619 l 393 550 l 289 690 l 183 550 l 104 619 l 225 733 z "},"<":{"ha":693,"x_min":61,"x_max":622,"o":"m 622 726 l 224 443 l 622 163 l 524 40 l 61 374 l 61 514 l 524 847 l 622 726 z "},">":{"ha":693,"x_min":63,"x_max":632,"o":"m 168 853 l 632 518 l 632 374 l 168 40 l 63 163 l 465 446 l 63 731 l 168 853 z "},"^":{"ha":725,"x_min":28,"x_max":704,"o":"m 28 306 l 301 836 l 431 836 l 704 306 l 526 306 l 365 646 l 206 306 l 28 306 z "},"{":{"ha":539,"x_min":99,"x_max":518,"o":"m 518 -215 q 359 -190 424 -215 q 254 -117 294 -164 q 197 -7 214 -71 q 179 133 179 57 l 179 260 q 169 340 179 318 q 133 363 160 363 l 99 363 l 99 524 l 133 524 q 169 545 160 524 q 179 625 179 567 l 179 753 q 197 893 179 829 q 254 1003 214 957 q 359 1074 294 1049 q 518 1100 424 1100 l 518 974 q 369 924 415 974 q 322 768 322 874 l 322 618 q 297 508 322 551 q 232 446 272 465 l 232 439 q 297 377 272 419 q 322 268 322 335 l 322 117 q 369 -37 322 13 q 518 -87 415 -87 l 518 -215 z "},"|":{"ha":403,"x_min":131,"x_max":274,"o":"m 131 1068 l 274 1068 l 274 -169 l 131 -169 l 131 1068 z "},"}":{"ha":539,"x_min":21,"x_max":440,"o":"m 21 -87 q 170 -37 124 -87 q 217 117 217 13 l 217 268 q 242 377 217 335 q 307 439 267 419 l 307 446 q 242 508 267 465 q 217 618 217 551 l 217 768 q 170 924 217 874 q 21 974 124 974 l 21 1100 q 180 1074 115 1100 q 285 1003 244 1049 q 342 893 325 957 q 360 753 360 829 l 360 625 q 369 545 360 567 q 406 524 379 524 l 440 524 l 440 363 l 406 363 q 369 340 379 363 q 360 260 360 318 l 360 133 q 342 -7 360 57 q 285 -117 325 -71 q 180 -190 244 -164 q 21 -215 115 -215 l 21 -87 z "},"~":{"ha":786,"x_min":79,"x_max":707,"o":"m 165 286 l 79 332 q 145 472 103 419 q 254 524 188 524 q 319 514 285 524 q 404 485 353 504 q 483 457 454 465 q 531 449 511 449 q 621 525 588 449 l 707 471 q 631 340 679 383 q 518 296 583 296 q 463 305 496 296 q 378 335 429 314 q 300 361 326 353 q 253 369 274 369 q 205 350 226 369 q 165 286 183 331 z "},"£":{"ha":813,"x_min":49,"x_max":772,"o":"m 49 122 l 93 122 q 166 151 144 122 q 188 243 188 181 l 188 371 l 71 371 l 71 479 l 188 479 l 188 625 q 258 841 188 769 q 457 913 328 913 q 629 853 564 913 q 710 688 694 794 l 567 688 q 530 757 560 732 q 457 782 500 782 q 367 744 403 782 q 331 625 331 707 l 331 479 l 586 479 l 586 371 l 331 371 l 331 254 q 321 177 331 210 q 288 122 311 144 l 482 122 q 581 149 551 122 q 617 231 610 175 l 772 231 q 747 133 765 176 q 694 60 728 90 q 607 15 660 31 q 479 0 554 0 l 49 0 l 49 122 z "},"ʼ":{"ha":325,"x_min":50,"x_max":325,"o":"m 85 810 q 115 879 85 851 q 194 907 146 907 q 290 865 256 907 q 325 761 325 824 q 315 697 325 729 q 284 635 304 665 q 235 580 264 606 q 169 536 206 554 l 50 596 q 131 648 96 618 q 176 715 165 678 q 111 746 138 722 q 85 810 85 769 z "},"₨":{"ha":838,"x_min":115,"x_max":738,"o":"m 115 900 l 738 900 l 738 810 l 493 810 q 555 751 532 785 q 586 678 578 718 l 738 678 l 738 588 l 590 588 q 516 433 581 497 q 321 349 451 368 l 682 0 l 472 0 l 115 342 l 115 433 l 222 433 q 376 478 325 436 q 439 588 428 521 l 115 588 l 115 678 l 435 678 q 368 771 419 735 q 222 810 317 807 l 115 810 l 115 900 z "},"௦":{"ha":767,"x_min":72,"x_max":708,"o":"m 390 585 q 264 524 307 585 q 221 351 221 464 q 264 178 221 239 q 390 118 307 118 q 518 178 475 118 q 561 351 561 239 q 518 524 561 464 q 390 585 475 585 m 390 715 q 533 689 472 715 q 632 615 593 663 q 690 499 671 567 q 708 351 708 432 q 690 203 708 269 q 632 88 671 136 q 533 14 593 40 q 390 -12 472 -12 q 249 14 308 -12 q 149 88 189 40 q 91 203 110 136 q 72 351 72 269 q 91 499 72 432 q 149 615 110 567 q 249 689 189 663 q 390 715 308 715 z "},"௧":{"ha":1088,"x_min":57,"x_max":1036,"o":"m 358 396 l 565 396 l 565 578 l 358 578 l 358 396 m 285 304 q 207 240 207 304 q 267 146 207 185 q 425 107 326 107 q 565 247 565 107 l 565 304 l 285 304 m 899 707 l 899 578 l 707 578 l 707 396 l 800 396 q 972 347 908 396 q 1036 211 1036 297 q 986 68 1036 124 q 858 -12 936 13 l 771 94 q 857 140 826 108 q 888 215 888 171 q 860 280 888 256 q 782 304 833 304 l 707 304 l 707 246 q 633 50 707 113 q 439 -12 560 -12 q 281 11 351 -12 q 160 73 210 35 q 83 160 110 111 q 57 257 57 208 q 99 360 57 324 q 217 396 142 396 l 225 396 l 225 707 l 899 707 z "},"௨":{"ha":1172,"x_min":88,"x_max":1156,"o":"m 411 719 q 540 699 481 719 q 644 641 600 678 q 713 553 688 604 q 738 442 738 503 q 663 238 738 321 q 429 122 589 156 l 1156 122 l 1156 0 l 121 0 l 106 143 q 279 164 196 143 q 414 214 363 185 q 335 199 375 196 q 240 224 285 206 q 160 272 194 242 q 107 342 126 301 q 88 436 88 383 q 113 552 88 500 q 181 642 138 604 q 283 699 224 679 q 411 719 342 719 m 411 589 q 283 542 329 589 q 238 426 238 496 q 251 356 238 386 q 289 304 265 325 q 344 273 313 283 q 411 263 375 263 q 538 304 489 263 q 588 425 588 346 q 541 542 588 494 q 411 589 494 589 z "},"௩":{"ha":1101,"x_min":135,"x_max":1085,"o":"m 821 707 l 821 578 l 667 578 l 667 414 l 756 414 q 908 372 853 414 q 963 256 963 331 q 945 184 963 215 q 890 131 928 153 l 1085 131 l 1085 0 l 538 0 l 538 131 l 690 131 q 783 160 754 131 q 813 229 813 189 q 790 292 813 265 q 713 318 767 318 l 525 318 l 525 578 l 278 578 l 278 0 l 135 0 l 135 707 l 821 707 z "},"௫":{"ha":1192,"x_min":57,"x_max":1097,"o":"m 1097 707 l 1097 310 l 1042 310 l 1042 304 l 707 304 l 707 246 q 633 50 707 113 q 439 -12 560 -12 q 281 11 351 -12 q 160 73 210 35 q 83 160 110 111 q 57 257 57 208 q 99 360 57 324 q 217 396 142 396 l 225 396 l 225 707 l 825 707 l 825 578 l 707 578 l 707 396 l 954 396 l 954 707 l 1097 707 m 285 304 q 207 240 207 304 q 267 146 207 185 q 425 107 326 107 q 565 247 565 107 l 565 304 l 285 304 m 358 396 l 565 396 l 565 578 l 358 578 l 358 396 z "},"௬":{"ha":1521,"x_min":82,"x_max":1457,"o":"m 1194 707 l 1194 578 l 1039 578 l 1039 306 q 1112 394 1064 365 q 1222 424 1160 424 q 1311 404 1268 424 q 1386 347 1354 385 q 1438 256 1418 310 q 1457 135 1457 203 q 1413 -69 1457 22 q 1285 -224 1368 -160 q 1085 -324 1203 -289 q 819 -358 967 -358 q 519 -319 656 -358 q 286 -203 383 -279 q 135 -15 189 -126 q 82 238 82 96 q 115 478 82 363 q 206 715 149 594 l 342 676 q 260 452 289 556 q 232 238 232 349 q 272 34 232 121 q 387 -109 311 -53 q 572 -193 463 -165 q 819 -221 681 -221 q 1008 -199 919 -221 q 1164 -132 1097 -176 q 1269 -21 1231 -87 q 1308 135 1308 46 q 1274 257 1308 215 q 1186 299 1240 299 q 1081 239 1122 299 q 1039 79 1039 179 l 1039 0 l 897 0 l 897 578 l 649 578 l 649 0 l 507 0 l 507 707 l 1194 707 z "},"௭":{"ha":1501,"x_min":57,"x_max":1461,"o":"m 899 707 l 899 578 l 707 578 l 707 396 l 1461 396 l 1461 297 l 1343 297 l 1343 0 l 1200 0 l 1200 297 l 1007 297 l 1007 0 l 864 0 l 864 297 l 707 297 l 707 246 q 633 50 707 113 q 439 -12 560 -12 q 281 11 351 -12 q 160 73 210 35 q 83 160 110 111 q 57 257 57 208 q 99 360 57 324 q 217 396 142 396 l 225 396 l 225 707 l 899 707 m 285 304 q 207 240 207 304 q 267 146 207 185 q 425 107 326 107 q 565 247 565 107 l 565 304 l 285 304 m 358 396 l 565 396 l 565 578 l 358 578 l 358 396 z "},"௪":{"ha":1154,"x_min":72,"x_max":1122,"o":"m 1122 707 l 1122 578 l 974 578 l 974 0 l 831 0 l 831 578 l 610 578 q 460 557 531 578 q 336 498 389 536 q 253 406 283 460 q 222 286 222 351 q 248 175 222 215 q 315 115 274 135 q 306 185 307 149 q 314 256 306 221 q 340 321 322 290 q 383 374 357 351 q 444 410 410 397 q 522 424 479 424 q 607 408 569 424 q 671 366 644 393 q 711 301 697 339 q 725 221 725 264 q 703 128 725 171 q 643 53 682 85 q 550 5 604 22 q 432 -12 496 -12 q 299 11 364 -12 q 184 77 235 35 q 103 178 133 119 q 72 310 72 238 q 111 467 72 394 q 221 592 150 539 q 391 676 292 646 q 610 707 490 707 l 1122 707 m 500 299 q 426 266 454 299 q 392 190 399 233 q 389 144 389 167 q 394 101 389 122 q 417 99 406 99 q 439 99 428 99 q 485 106 461 99 q 530 128 510 114 q 563 166 550 143 q 576 218 576 189 q 557 276 576 254 q 500 299 538 299 z "},"௮":{"ha":1282,"x_min":39,"x_max":1147,"o":"m 501 719 q 656 691 589 719 q 770 615 724 663 q 842 508 817 568 q 871 386 867 449 l 1004 386 l 1004 710 l 1147 710 l 1147 0 l 1004 0 l 1004 293 l 867 293 q 829 179 857 235 q 751 81 801 124 q 628 13 701 39 q 453 -12 554 -12 q 281 10 357 -12 q 150 69 204 32 q 67 153 96 106 q 39 253 39 201 q 86 354 39 322 q 213 386 133 386 l 296 386 q 248 441 265 408 q 231 514 231 474 q 251 597 231 560 q 306 662 271 635 q 392 704 342 689 q 501 719 442 719 m 453 118 q 636 167 574 118 q 717 293 699 215 l 258 293 q 206 278 222 293 q 190 239 190 264 q 206 195 190 217 q 253 156 221 174 q 335 128 286 139 q 453 118 385 118 m 376 485 q 403 418 376 447 q 476 386 429 389 l 722 386 q 701 467 718 429 q 658 531 685 504 q 594 574 631 558 q 515 589 558 589 q 414 560 451 589 q 376 485 376 532 z "},"௯":{"ha":1683,"x_min":57,"x_max":1611,"o":"m 869 707 l 869 578 l 707 578 l 707 396 l 868 396 q 926 501 889 454 q 1013 581 963 549 q 1124 632 1063 614 q 1254 650 1185 650 q 1410 619 1343 650 q 1522 538 1476 589 q 1589 420 1567 488 q 1611 279 1611 353 q 1590 133 1611 207 q 1531 -11 1569 60 l 1396 56 q 1449 176 1435 115 q 1464 285 1464 236 q 1450 379 1464 336 q 1408 453 1436 422 q 1336 503 1379 485 q 1235 521 1293 521 q 1100 488 1161 521 q 1001 396 1039 454 l 1090 396 q 1184 381 1142 396 q 1257 340 1226 367 q 1303 278 1288 314 q 1319 199 1319 242 q 1305 117 1319 156 q 1262 50 1290 79 q 1192 4 1233 21 q 1096 -12 1150 -12 q 999 7 1044 -12 q 920 62 954 26 q 867 148 886 97 q 847 260 847 199 q 847 282 847 271 q 849 304 847 293 l 707 304 l 707 246 q 633 50 707 113 q 439 -12 560 -12 q 281 11 351 -12 q 160 73 210 35 q 83 160 110 111 q 57 257 57 208 q 99 360 57 324 q 217 396 142 396 l 225 396 l 225 707 l 869 707 m 285 304 q 207 240 207 304 q 267 146 207 185 q 425 107 326 107 q 565 247 565 107 l 565 304 l 285 304 m 978 304 q 975 277 975 290 q 975 251 975 264 q 1008 140 975 176 q 1096 103 1042 103 q 1172 131 1142 103 q 1201 206 1201 158 q 1170 279 1201 254 q 1081 304 1139 304 l 978 304 m 358 396 l 565 396 l 565 578 l 358 578 l 358 396 z "},"௰":{"ha":1226,"x_min":126,"x_max":1167,"o":"m 588 1054 q 838 1011 729 1054 q 1019 891 946 968 q 1129 708 1092 814 q 1167 478 1167 603 q 1140 284 1167 374 q 1065 128 1114 194 q 946 25 1015 63 q 790 -12 876 -12 q 640 22 701 -12 q 546 128 578 56 q 480 26 526 65 q 357 -12 433 -12 q 265 3 307 -12 q 192 52 222 19 q 144 135 161 85 q 126 253 126 185 l 126 707 l 269 707 l 269 265 q 303 153 269 188 q 389 118 336 118 q 481 163 451 119 q 510 283 510 206 l 510 707 l 651 707 l 651 268 q 686 153 651 188 q 790 118 721 118 q 876 144 835 118 q 948 219 917 171 q 998 333 979 267 q 1017 478 1017 399 q 904 809 1017 694 q 589 924 792 924 q 490 916 540 924 q 379 890 439 908 l 311 1026 q 454 1048 386 1042 q 588 1054 522 1054 z "},"௱":{"ha":1264,"x_min":126,"x_max":1232,"o":"m 1232 707 l 1232 578 l 1082 578 l 1082 0 l 939 0 l 939 578 l 693 578 l 693 0 l 550 0 l 550 396 q 536 484 549 447 q 504 544 524 521 q 459 578 485 567 q 406 589 433 589 q 306 551 343 589 q 269 429 269 513 l 269 0 l 126 0 l 126 471 q 190 658 126 596 q 353 719 253 719 q 473 682 424 719 q 550 575 522 644 l 550 707 l 1232 707 z "},"௲":{"ha":1574,"x_min":57,"x_max":1538,"o":"m 899 707 l 899 578 l 707 578 l 707 396 l 1399 396 l 1399 297 l 1256 297 l 1256 175 l 1281 175 q 1467 119 1397 175 q 1538 -42 1538 64 q 1512 -159 1538 -106 q 1437 -251 1486 -212 q 1315 -310 1388 -289 q 1150 -332 1243 -332 l 913 -332 q 865 -371 865 -332 q 897 -433 865 -403 l 813 -478 q 759 -419 781 -453 q 738 -346 738 -385 q 770 -267 738 -296 q 861 -239 803 -239 l 1150 -239 q 1337 -183 1276 -239 q 1397 -42 1397 -128 q 1368 49 1397 17 q 1281 81 1339 81 l 1256 81 l 1256 46 q 1243 -30 1256 6 q 1203 -91 1231 -65 q 1134 -131 1176 -117 q 1032 -146 1092 -146 q 928 -131 979 -146 q 839 -87 878 -115 q 776 -22 800 -60 q 753 63 753 17 q 793 149 753 122 q 890 175 833 175 l 1114 175 l 1114 297 l 707 297 l 707 246 q 633 50 707 113 q 439 -12 560 -12 q 281 11 351 -12 q 160 73 210 35 q 83 160 110 111 q 57 257 57 208 q 99 360 57 324 q 217 396 142 396 l 225 396 l 225 707 l 899 707 m 285 304 q 207 240 207 304 q 267 146 207 185 q 425 107 326 107 q 565 247 565 107 l 565 304 l 285 304 m 368 396 l 565 396 l 565 578 l 368 578 l 368 396 m 921 83 q 885 71 897 83 q 874 39 874 58 q 885 3 874 19 q 917 -26 897 -14 q 961 -47 936 -39 q 1013 -54 986 -54 q 1092 -26 1071 -54 q 1114 43 1114 1 l 1114 83 l 921 83 z "},"்":{"ha":274,"x_min":46,"x_max":225,"o":"m 46 940 q 72 1006 46 981 q 133 1032 97 1032 q 199 1006 172 1032 q 225 940 225 981 q 199 878 225 904 q 133 853 172 853 q 72 878 97 853 q 46 940 46 904 z "},"ஂ":{"ha":449,"x_min":35,"x_max":413,"o":"m 224 1154 q 360 1110 307 1154 q 413 986 413 1065 q 360 863 413 907 q 224 819 307 819 q 88 863 140 819 q 35 986 35 907 q 88 1110 35 1065 q 224 1154 140 1154 m 224 1056 q 178 1037 194 1056 q 163 986 163 1018 q 178 937 163 954 q 224 919 194 919 q 270 937 254 919 q 286 986 286 954 q 270 1037 286 1018 q 224 1056 254 1056 z "},"ஃ":{"ha":1064,"x_min":46,"x_max":1018,"o":"m 532 914 q 618 898 578 914 q 688 853 658 882 q 735 782 718 824 q 753 689 753 740 q 735 596 753 638 q 688 525 718 554 q 618 481 658 496 q 532 465 578 465 q 444 481 485 465 q 374 525 404 496 q 328 596 344 554 q 311 689 311 638 q 328 782 311 740 q 374 853 344 824 q 444 898 404 882 q 532 914 485 914 m 267 436 q 353 421 313 436 q 423 376 393 406 q 470 306 453 347 q 488 213 488 264 q 470 119 488 161 q 423 49 453 78 q 353 3 393 19 q 267 -12 313 -12 q 181 3 221 -12 q 110 49 140 19 q 63 119 81 78 q 46 213 46 161 q 63 306 46 264 q 110 376 81 347 q 181 421 140 406 q 267 436 221 436 m 799 436 q 885 421 844 436 q 955 376 925 406 q 1001 306 985 347 q 1018 213 1018 264 q 1001 119 1018 161 q 955 49 985 78 q 885 3 925 19 q 799 -12 844 -12 q 710 3 751 -12 q 640 49 669 19 q 593 119 610 78 q 576 213 576 161 q 593 306 576 264 q 640 376 610 347 q 710 421 669 406 q 799 436 751 436 m 267 325 q 208 298 231 325 q 186 213 186 271 q 208 126 186 154 q 267 99 231 99 q 325 126 301 99 q 349 213 349 154 q 325 298 349 271 q 267 325 301 325 m 799 325 q 740 298 763 325 q 718 213 718 271 q 740 126 718 154 q 799 99 763 99 q 857 126 833 99 q 881 213 881 154 q 857 298 881 271 q 799 325 833 325 m 532 803 q 474 775 496 803 q 451 689 451 747 q 474 603 451 631 q 532 576 496 576 q 590 603 567 576 q 614 689 614 631 q 590 775 614 747 q 532 803 567 803 z "},"அ":{"ha":1349,"x_min":33,"x_max":1213,"o":"m 557 719 q 703 691 635 719 q 822 615 771 663 q 903 505 872 567 q 938 378 933 443 l 1071 378 l 1071 710 l 1213 710 l 1213 0 l 1071 0 l 1071 288 l 933 288 q 891 165 922 221 q 806 70 860 110 q 677 9 753 31 q 503 -12 601 -12 q 306 13 393 -12 q 159 77 219 38 q 66 165 99 117 q 33 257 33 213 q 76 348 33 318 q 189 378 118 378 l 293 378 q 249 488 249 422 q 274 581 249 539 q 341 654 299 624 q 440 702 383 685 q 557 719 496 719 m 503 107 q 711 154 631 107 q 815 288 792 201 l 249 288 q 198 275 217 288 q 179 235 179 263 q 197 188 179 211 q 253 147 215 165 q 353 118 292 129 q 503 107 415 107 m 561 508 q 558 552 561 531 q 544 597 554 574 q 421 556 469 590 q 372 465 372 521 q 397 402 372 426 q 457 378 421 378 l 461 378 q 535 417 510 381 q 561 508 561 454 m 647 488 q 638 426 647 454 q 614 378 629 397 l 824 378 q 803 456 821 419 q 759 519 786 492 q 697 567 732 547 q 621 594 661 586 q 640 544 632 571 q 647 488 647 517 z "},"ஆ":{"ha":1694,"x_min":33,"x_max":1632,"o":"m 557 719 q 703 691 635 719 q 822 615 771 663 q 903 505 872 567 q 938 378 933 443 l 1071 378 l 1071 710 l 1213 710 l 1213 306 q 1286 395 1240 367 q 1394 424 1332 424 q 1491 403 1447 424 q 1566 344 1535 382 q 1615 256 1597 307 q 1632 147 1632 206 q 1594 -18 1632 56 q 1487 -144 1556 -92 q 1324 -224 1418 -196 q 1119 -251 1231 -251 q 979 -238 1053 -251 q 838 -199 906 -225 l 838 -51 q 984 -104 911 -87 q 1119 -121 1057 -121 q 1267 -101 1200 -121 q 1381 -47 1333 -82 q 1456 37 1429 -12 q 1482 147 1482 86 q 1445 260 1482 222 q 1361 299 1408 299 q 1255 239 1297 299 q 1213 79 1213 179 l 1213 0 l 1071 0 l 1071 288 l 933 288 q 891 165 922 221 q 806 70 860 110 q 677 9 753 31 q 503 -12 601 -12 q 306 13 393 -12 q 159 77 219 38 q 66 165 99 117 q 33 257 33 213 q 76 348 33 318 q 189 378 118 378 l 293 378 q 249 488 249 422 q 274 581 249 539 q 341 654 299 624 q 440 702 383 685 q 557 719 496 719 m 503 107 q 711 154 631 107 q 815 288 792 201 l 249 288 q 198 275 217 288 q 179 235 179 263 q 197 188 179 211 q 253 147 215 165 q 353 118 292 129 q 503 107 415 107 m 561 508 q 558 552 561 531 q 544 597 554 574 q 421 556 469 590 q 372 465 372 521 q 394 405 372 429 q 450 378 417 381 l 457 378 q 534 415 507 378 q 561 508 561 453 m 647 488 q 638 426 647 454 q 614 378 629 397 l 824 378 q 803 456 821 419 q 759 519 786 492 q 697 567 732 547 q 621 594 661 586 q 640 543 632 571 q 647 488 647 515 z "},"இ":{"ha":1425,"x_min":61,"x_max":1340,"o":"m 735 1029 q 989 978 876 1029 q 1180 838 1101 926 q 1299 629 1258 749 q 1340 374 1340 510 l 1340 182 l 1221 182 l 1221 363 q 1188 585 1221 486 q 1092 755 1154 685 q 939 863 1029 825 q 735 901 849 901 q 530 867 622 901 q 372 770 438 832 q 270 623 306 708 q 235 436 235 538 q 267 264 235 338 q 347 122 299 190 q 508 162 418 147 q 694 176 599 176 q 803 171 753 176 q 901 154 853 165 q 924 233 917 190 q 932 314 932 275 q 921 409 932 363 q 889 495 910 456 q 838 566 868 535 q 768 617 807 597 q 792 547 783 585 q 801 475 801 508 q 788 403 801 436 q 751 344 775 369 q 693 305 728 319 q 615 290 658 290 q 537 303 574 290 q 474 342 500 317 q 432 401 447 367 q 417 478 417 436 q 440 578 417 533 q 503 653 464 622 q 593 699 542 683 q 701 715 644 715 q 838 685 775 715 q 949 603 901 656 q 1022 476 996 550 q 1049 315 1049 403 q 1017 126 1049 218 q 1144 74 1085 104 q 1247 7 1203 43 q 1315 -72 1290 -29 q 1340 -160 1340 -114 q 1323 -240 1340 -203 q 1274 -303 1306 -276 q 1197 -344 1242 -329 q 1099 -358 1153 -358 q 906 -330 1004 -358 q 703 -251 808 -301 q 529 -329 619 -300 q 332 -358 439 -358 q 222 -343 271 -358 q 136 -300 172 -328 q 81 -234 100 -272 q 61 -150 61 -196 q 109 -22 61 -81 q 242 81 157 36 q 141 253 178 164 q 104 442 104 342 q 153 687 104 578 q 288 872 203 796 q 488 988 374 947 q 735 1029 603 1029 m 1200 -151 q 1141 -49 1200 -97 q 982 36 1082 0 q 896 -92 944 -36 q 783 -193 847 -147 q 928 -237 857 -221 q 1063 -253 999 -253 q 1166 -223 1132 -253 q 1200 -151 1200 -193 m 674 -139 q 861 67 790 -56 q 779 78 821 74 q 693 82 738 82 q 553 72 626 82 q 422 40 481 61 q 540 -57 475 -12 q 674 -139 606 -101 m 338 -253 q 465 -237 399 -253 q 594 -194 532 -222 q 439 -105 511 -154 q 318 -3 367 -56 q 228 -76 260 -36 q 197 -160 197 -117 q 232 -226 197 -200 q 338 -253 267 -253 m 700 601 q 578 565 628 597 q 529 479 529 533 q 551 416 529 439 q 608 393 574 393 q 685 426 657 393 q 713 524 713 460 q 710 564 713 544 q 700 601 707 583 z "},"ஈ":{"ha":1057,"x_min":135,"x_max":993,"o":"m 985 707 l 985 578 l 746 578 l 746 0 l 603 0 l 603 578 l 278 578 l 278 0 l 135 0 l 135 707 l 985 707 m 439 392 q 501 367 476 392 q 525 307 525 343 q 501 247 525 271 q 439 224 476 224 q 378 247 403 224 q 354 307 354 271 q 378 367 354 343 q 439 392 403 392 m 907 392 q 969 367 944 392 q 993 307 993 343 q 969 247 993 271 q 907 224 944 224 q 847 247 871 224 q 822 307 822 271 q 847 367 822 343 q 907 392 871 392 z "},"உ":{"ha":1308,"x_min":89,"x_max":1279,"o":"m 419 719 q 560 697 490 719 q 684 633 629 674 q 772 535 739 592 q 806 413 806 479 q 781 303 806 351 q 713 219 757 256 q 608 159 669 183 q 475 122 547 135 l 1279 122 l 1279 0 l 118 0 l 103 143 q 517 214 378 144 q 656 413 656 283 q 608 542 656 492 q 486 601 560 593 q 511 538 501 571 q 521 474 521 506 q 508 401 521 435 q 469 343 496 368 q 404 304 443 318 q 313 290 365 290 q 224 303 265 290 q 153 339 183 315 q 106 397 124 363 q 89 476 89 432 q 116 578 89 533 q 189 655 143 624 q 294 703 235 686 q 419 719 354 719 m 413 597 q 335 585 368 596 q 281 556 303 574 q 249 517 260 539 q 239 472 239 496 q 260 417 239 439 q 318 396 282 396 q 396 429 367 396 q 425 526 425 463 q 413 597 425 561 z "},"ஊ":{"ha":2099,"x_min":89,"x_max":2040,"o":"m 1186 719 q 1329 680 1267 719 q 1424 565 1392 640 l 1424 707 l 2040 707 l 2040 585 l 1899 585 l 1899 232 l 1756 232 l 1756 585 l 1558 585 l 1558 232 l 1424 232 l 1424 368 q 1387 518 1424 463 q 1282 592 1350 574 q 1243 601 1265 599 q 1201 601 1221 604 q 1283 515 1251 565 q 1314 406 1314 464 q 1258 271 1314 324 q 1110 218 1203 218 q 1023 233 1064 218 q 951 278 982 249 q 901 349 919 307 q 883 442 883 390 q 907 554 883 503 q 972 642 931 606 q 1067 699 1013 679 q 1186 719 1122 719 m 1139 585 q 1061 524 1089 565 q 1033 429 1033 482 q 1058 353 1033 381 q 1119 326 1082 326 q 1183 358 1160 326 q 1207 436 1207 390 q 1188 517 1207 478 q 1139 585 1169 556 m 419 719 q 560 697 490 719 q 684 633 629 674 q 772 535 739 592 q 806 413 806 479 q 781 303 806 351 q 713 219 757 256 q 608 159 669 183 q 475 122 547 135 l 2040 122 l 2040 0 l 118 0 l 103 143 q 517 214 378 144 q 656 413 656 283 q 608 542 656 492 q 486 601 560 593 q 511 538 501 571 q 521 474 521 506 q 508 401 521 435 q 469 343 496 368 q 404 304 443 318 q 313 290 365 290 q 224 303 265 290 q 153 339 183 315 q 106 397 124 363 q 89 476 89 432 q 116 578 89 533 q 189 655 143 624 q 294 703 235 686 q 419 719 354 719 m 413 597 q 335 585 368 596 q 281 556 303 574 q 249 517 260 539 q 239 472 239 496 q 260 417 239 439 q 318 396 282 396 q 396 429 367 396 q 425 526 425 463 q 413 597 425 561 z "},"எ":{"ha":1154,"x_min":72,"x_max":1122,"o":"m 1122 707 l 1122 578 l 974 578 l 974 0 l 831 0 l 831 578 l 610 578 q 460 557 531 578 q 336 498 389 536 q 253 406 283 460 q 222 286 222 351 q 248 175 222 215 q 315 115 274 135 q 306 185 307 149 q 314 256 306 221 q 340 321 322 290 q 383 374 357 351 q 444 410 410 397 q 522 424 479 424 q 607 408 569 424 q 671 366 644 393 q 711 301 697 339 q 725 221 725 264 q 703 128 725 171 q 643 53 682 85 q 550 5 604 22 q 432 -12 496 -12 q 299 11 364 -12 q 184 77 235 35 q 103 178 133 119 q 72 310 72 238 q 111 467 72 394 q 221 592 150 539 q 391 676 292 646 q 610 707 490 707 l 1122 707 m 500 299 q 426 266 454 299 q 392 190 399 233 q 389 144 389 167 q 394 101 389 122 q 417 99 406 99 q 439 99 428 99 q 485 106 461 99 q 530 128 510 114 q 563 166 550 143 q 576 218 576 189 q 557 276 576 254 q 500 299 538 299 z "},"ஏ":{"ha":1154,"x_min":72,"x_max":1122,"o":"m 1122 707 l 1122 578 l 974 578 l 974 -90 l 625 -358 l 499 -285 l 831 -26 l 831 578 l 610 578 q 460 557 531 578 q 336 498 389 536 q 253 406 283 460 q 222 286 222 351 q 248 175 222 215 q 315 115 274 135 q 306 185 307 149 q 314 256 306 221 q 340 321 322 290 q 383 374 357 351 q 444 410 410 397 q 522 424 479 424 q 607 408 569 424 q 671 366 644 393 q 711 301 697 339 q 725 221 725 264 q 703 128 725 171 q 643 53 682 85 q 550 5 604 22 q 432 -12 496 -12 q 299 11 364 -12 q 184 77 235 35 q 103 178 133 119 q 72 310 72 238 q 111 467 72 394 q 221 592 150 539 q 391 676 292 646 q 610 707 490 707 l 1122 707 m 500 299 q 426 266 454 299 q 392 190 399 233 q 389 144 389 167 q 394 101 389 122 q 417 99 406 99 q 439 99 428 99 q 485 106 461 99 q 530 128 510 114 q 563 166 550 143 q 576 218 576 189 q 557 276 576 254 q 500 299 538 299 z "},"ஐ":{"ha":1228,"x_min":88,"x_max":1142,"o":"m 878 719 q 980 698 932 719 q 1064 638 1028 676 q 1121 546 1100 599 q 1142 429 1142 493 q 1103 260 1142 333 q 997 137 1064 186 q 840 63 931 88 q 644 38 749 38 l 376 38 q 274 7 310 38 q 238 -78 238 -24 q 285 -182 238 -142 q 417 -222 332 -222 q 542 -185 499 -222 q 586 -65 586 -147 l 728 -65 q 767 -185 728 -147 q 868 -222 806 -222 q 956 -190 921 -222 q 990 -99 990 -157 q 982 -41 990 -68 q 958 14 974 -14 l 1083 68 q 1126 -23 1111 24 q 1142 -118 1142 -69 q 1124 -217 1142 -172 q 1073 -292 1106 -261 q 994 -341 1040 -324 q 893 -358 949 -358 q 774 -326 826 -358 q 694 -224 722 -294 q 417 -358 614 -358 q 284 -336 344 -358 q 180 -274 224 -314 q 112 -181 136 -235 q 88 -65 88 -128 q 160 106 88 46 q 372 167 233 167 l 632 167 q 897 236 804 167 q 990 438 990 306 q 958 555 990 515 q 876 594 926 594 q 783 547 819 594 q 747 403 747 499 l 747 289 l 606 289 l 606 379 q 569 509 603 454 q 474 579 536 564 q 433 594 456 590 q 392 599 411 597 q 468 513 440 564 q 496 410 496 461 q 450 296 496 343 q 311 249 404 249 q 226 263 267 249 q 155 303 186 276 q 106 369 124 329 q 88 461 88 408 q 113 566 88 518 q 178 648 138 614 q 272 701 219 682 q 378 719 324 719 q 527 680 460 719 q 633 558 594 640 q 731 678 667 638 q 878 719 794 719 m 403 454 q 384 526 403 492 q 329 585 365 561 q 253 530 281 565 q 226 446 226 494 q 251 378 226 401 q 311 356 275 356 q 379 384 356 356 q 403 454 403 413 z "},"ஒ":{"ha":1574,"x_min":72,"x_max":1500,"o":"m 788 719 q 1097 680 964 719 q 1320 577 1231 640 q 1455 433 1410 514 q 1500 271 1500 353 q 1481 151 1500 204 q 1426 63 1461 99 q 1346 7 1392 26 q 1247 -12 1300 -12 q 1161 1 1201 -12 q 1092 39 1121 14 q 1046 99 1063 64 q 1029 178 1029 133 q 1033 220 1029 197 q 1049 267 1038 243 q 963 165 994 225 q 932 43 932 106 q 999 -104 932 -57 q 1174 -151 1065 -151 l 1313 -151 l 1313 -281 l 1185 -281 q 1006 -249 1086 -281 q 940 -360 974 -314 q 867 -437 907 -407 q 778 -483 826 -468 q 669 -497 729 -497 q 567 -481 615 -497 q 483 -435 518 -465 q 426 -365 447 -406 q 406 -274 406 -324 q 422 -187 406 -229 q 464 -112 439 -144 l 607 -146 q 556 -276 556 -210 q 588 -346 556 -324 q 668 -368 621 -368 q 785 -323 731 -368 q 883 -178 839 -278 q 810 -75 831 -129 q 789 42 789 -21 q 856 252 789 160 q 1035 415 922 344 l 1188 365 q 1159 292 1168 325 q 1150 215 1150 258 q 1176 144 1150 171 q 1242 118 1201 118 q 1318 158 1286 118 q 1350 271 1350 197 q 1309 397 1350 339 q 1194 497 1268 454 q 1016 565 1119 540 q 788 589 913 589 q 365 507 508 589 q 222 278 222 425 q 248 174 222 214 q 314 115 274 135 q 306 185 307 149 q 314 256 306 221 q 340 321 322 290 q 383 374 357 351 q 444 410 410 397 q 522 424 479 424 q 607 408 569 424 q 671 366 644 393 q 711 301 697 339 q 725 221 725 264 q 703 128 725 171 q 643 53 682 85 q 550 5 604 22 q 432 -12 496 -12 q 298 11 363 -12 q 183 77 233 35 q 103 178 133 119 q 72 306 72 236 q 114 471 72 394 q 242 602 156 547 q 465 688 329 657 q 788 719 600 719 m 500 299 q 426 266 454 299 q 392 190 399 233 q 389 144 389 167 q 394 101 389 122 q 417 99 406 99 q 439 99 428 99 q 485 106 461 99 q 530 128 510 114 q 563 166 550 143 q 576 218 576 189 q 556 276 576 254 q 500 299 536 299 z "},"ஓ":{"ha":1557,"x_min":72,"x_max":1500,"o":"m 1185 -281 q 1007 -253 1086 -281 q 842 -437 932 -376 q 638 -497 753 -497 q 533 -482 582 -497 q 446 -440 483 -467 q 387 -374 408 -412 q 365 -286 365 -335 q 382 -212 365 -244 q 426 -156 399 -179 q 489 -119 453 -132 q 564 -107 525 -107 q 651 -124 614 -107 q 713 -172 688 -142 q 751 -244 738 -203 q 769 -335 765 -286 q 838 -269 808 -306 q 893 -192 867 -232 q 789 42 789 -104 q 856 252 789 160 q 1035 415 922 344 l 1188 365 q 1159 292 1168 325 q 1150 215 1150 258 q 1176 144 1150 171 q 1242 118 1201 118 q 1318 158 1286 118 q 1350 271 1350 197 q 1309 397 1350 339 q 1194 497 1268 454 q 1016 565 1119 540 q 788 589 913 589 q 365 507 508 589 q 222 278 222 425 q 248 174 222 214 q 314 115 274 135 q 306 185 307 149 q 314 256 306 221 q 340 321 322 290 q 383 374 357 351 q 444 410 410 397 q 522 424 479 424 q 607 408 569 424 q 671 366 644 393 q 711 301 697 339 q 725 221 725 264 q 703 128 725 171 q 643 53 682 85 q 550 5 604 22 q 432 -12 496 -12 q 298 11 363 -12 q 183 77 233 35 q 103 178 133 119 q 72 306 72 236 q 114 471 72 394 q 242 602 156 547 q 465 688 329 657 q 788 719 600 719 q 1097 680 964 719 q 1320 576 1231 640 q 1455 432 1410 513 q 1500 269 1500 351 q 1481 151 1500 203 q 1426 63 1461 99 q 1346 7 1392 26 q 1247 -12 1300 -12 q 1161 1 1201 -12 q 1092 39 1121 14 q 1046 99 1063 64 q 1029 178 1029 133 q 1033 220 1029 197 q 1049 267 1038 243 q 963 165 994 225 q 932 43 932 106 q 999 -104 932 -57 q 1174 -151 1065 -151 l 1313 -151 l 1313 -281 l 1185 -281 m 500 299 q 426 266 454 299 q 392 190 399 233 q 389 144 389 167 q 394 101 389 122 q 417 99 406 99 q 439 99 428 99 q 485 106 461 99 q 530 128 510 114 q 563 166 550 143 q 576 218 576 189 q 556 276 576 254 q 500 299 536 299 m 586 -217 q 526 -238 549 -217 q 504 -293 504 -260 q 537 -357 504 -333 q 618 -381 569 -381 q 655 -379 640 -381 q 688 -372 669 -378 q 658 -260 682 -303 q 586 -217 633 -217 z "},"ஔ":{"ha":3107,"x_min":72,"x_max":3072,"o":"m 1185 -281 q 1007 -253 1086 -281 q 842 -437 932 -376 q 638 -497 753 -497 q 533 -482 582 -497 q 446 -440 483 -467 q 387 -374 408 -412 q 365 -286 365 -335 q 382 -212 365 -244 q 426 -156 399 -179 q 489 -119 453 -132 q 564 -107 525 -107 q 651 -124 614 -107 q 713 -172 688 -142 q 751 -244 738 -203 q 769 -335 765 -286 q 838 -269 808 -306 q 893 -192 867 -232 q 789 42 789 -104 q 856 252 789 160 q 1035 415 922 344 l 1188 365 q 1159 292 1168 325 q 1150 215 1150 258 q 1176 144 1150 171 q 1242 118 1201 118 q 1318 158 1286 118 q 1350 271 1350 197 q 1309 397 1350 339 q 1194 497 1268 454 q 1016 565 1119 540 q 788 589 913 589 q 365 507 508 589 q 222 278 222 425 q 248 174 222 214 q 314 115 274 135 q 306 185 307 149 q 314 256 306 221 q 340 321 322 290 q 383 374 357 351 q 444 410 410 397 q 522 424 479 424 q 607 408 569 424 q 671 366 644 393 q 711 301 697 339 q 725 221 725 264 q 703 128 725 171 q 643 53 682 85 q 550 5 604 22 q 432 -12 496 -12 q 298 11 363 -12 q 183 77 233 35 q 103 178 133 119 q 72 306 72 236 q 114 471 72 394 q 242 602 156 547 q 465 688 329 657 q 788 719 600 719 q 1097 680 964 719 q 1320 576 1231 640 q 1455 432 1410 513 q 1500 269 1500 351 q 1481 151 1500 203 q 1426 63 1461 99 q 1346 7 1392 26 q 1247 -12 1300 -12 q 1161 1 1201 -12 q 1092 39 1121 14 q 1046 99 1063 64 q 1029 178 1029 133 q 1033 220 1029 197 q 1049 267 1038 243 q 963 165 994 225 q 932 43 932 106 q 999 -104 932 -57 q 1174 -151 1065 -151 l 1313 -151 l 1313 -281 l 1185 -281 m 2051 719 q 2175 700 2119 719 q 2274 649 2231 681 q 2347 574 2317 617 q 2394 485 2376 532 l 2394 707 l 3072 707 l 3072 578 l 2922 578 l 2922 0 l 2779 0 l 2779 578 l 2526 578 l 2526 0 l 2394 0 l 2394 222 q 2372 375 2394 307 q 2307 491 2349 443 q 2206 564 2265 539 q 2076 589 2147 589 q 1951 565 2008 589 q 1851 501 1893 542 q 1787 404 1810 460 q 1764 286 1764 349 q 1790 175 1764 215 q 1857 115 1815 135 q 1848 185 1849 149 q 1856 256 1847 221 q 1881 321 1864 290 q 1925 374 1899 351 q 1986 410 1951 397 q 2064 424 2021 424 q 2149 408 2111 424 q 2213 366 2186 393 q 2253 301 2239 339 q 2267 221 2267 264 q 2245 128 2267 171 q 2185 53 2224 85 q 2092 5 2146 22 q 1974 -12 2038 -12 q 1841 11 1906 -12 q 1726 78 1776 35 q 1644 181 1675 121 q 1614 315 1614 242 q 1651 483 1614 408 q 1748 610 1688 558 q 1888 691 1808 663 q 2051 719 1967 719 m 2042 299 q 1968 266 1996 299 q 1933 190 1940 233 q 1931 144 1931 167 q 1936 101 1931 122 q 1958 99 1947 99 q 1981 99 1969 99 q 2027 106 2003 99 q 2072 128 2051 114 q 2105 166 2092 143 q 2118 218 2118 189 q 2099 276 2118 254 q 2042 299 2079 299 m 500 299 q 426 266 454 299 q 392 190 399 233 q 389 144 389 167 q 394 101 389 122 q 417 99 406 99 q 439 99 428 99 q 485 106 461 99 q 530 128 510 114 q 563 166 550 143 q 576 218 576 189 q 556 276 576 254 q 500 299 536 299 m 586 -217 q 526 -238 549 -217 q 504 -293 504 -260 q 537 -357 504 -333 q 618 -381 569 -381 q 655 -379 640 -381 q 688 -372 669 -378 q 658 -260 682 -303 q 586 -217 633 -217 z "},"க":{"ha":1088,"x_min":57,"x_max":1036,"o":"m 358 396 l 565 396 l 565 578 l 358 578 l 358 396 m 285 304 q 207 240 207 304 q 267 146 207 185 q 425 107 326 107 q 565 247 565 107 l 565 304 l 285 304 m 899 707 l 899 578 l 707 578 l 707 396 l 800 396 q 972 347 908 396 q 1036 211 1036 297 q 986 68 1036 124 q 858 -12 936 13 l 771 94 q 857 140 826 108 q 888 215 888 171 q 860 280 888 256 q 782 304 833 304 l 707 304 l 707 246 q 633 50 707 113 q 439 -12 560 -12 q 281 11 351 -12 q 160 73 210 35 q 83 160 110 111 q 57 257 57 208 q 99 360 57 324 q 217 396 142 396 l 225 396 l 225 707 l 899 707 z "},"ங":{"ha":1364,"x_min":135,"x_max":1229,"o":"m 821 707 l 821 578 l 667 578 l 667 414 l 764 414 q 911 371 860 414 q 963 253 963 328 q 892 131 963 172 l 1086 131 l 1086 707 l 1229 707 l 1229 0 l 538 0 l 538 131 l 699 131 q 792 160 763 131 q 821 229 821 189 q 798 292 821 265 q 721 318 775 318 l 525 318 l 525 578 l 278 578 l 278 0 l 135 0 l 135 707 l 821 707 z "},"ச":{"ha":949,"x_min":56,"x_max":897,"o":"m 357 396 l 564 396 l 564 578 l 357 578 l 357 396 m 283 304 q 206 240 206 304 q 222 188 206 213 q 266 146 238 164 q 335 117 294 128 q 424 107 375 107 q 564 247 564 107 l 564 304 l 283 304 m 897 707 l 897 578 l 706 578 l 706 396 l 865 396 l 865 304 l 706 304 l 706 246 q 633 50 706 113 q 438 -12 560 -12 q 279 11 350 -12 q 158 73 208 35 q 82 160 108 111 q 56 257 56 208 q 98 360 56 324 q 215 396 140 396 l 225 396 l 225 707 l 897 707 z "},"ஜ":{"ha":1235,"x_min":88,"x_max":1149,"o":"m 378 719 q 538 673 474 719 q 633 556 601 626 q 732 678 669 636 q 878 719 794 719 q 980 698 932 719 q 1064 638 1028 676 q 1121 546 1100 599 q 1142 429 1142 493 q 1103 263 1142 333 q 997 145 1064 192 q 840 76 931 99 q 644 53 749 53 l 396 53 q 335 43 364 53 q 284 15 306 33 q 250 -30 263 -4 q 238 -87 238 -56 q 283 -191 238 -153 q 394 -229 329 -229 q 483 -212 439 -229 q 572 -169 528 -194 q 659 -112 615 -143 q 749 -56 703 -82 q 843 -13 794 -31 q 943 4 892 4 q 1033 -10 994 4 q 1098 -47 1072 -24 q 1136 -102 1124 -71 q 1149 -168 1149 -133 q 1099 -294 1149 -243 q 947 -368 1050 -346 l 851 -300 q 963 -253 921 -282 q 1004 -182 1004 -225 q 983 -134 1004 -153 q 928 -115 963 -115 q 854 -133 893 -115 q 774 -178 815 -151 q 687 -237 732 -206 q 594 -295 642 -268 q 496 -340 546 -322 q 394 -358 446 -358 q 271 -338 328 -358 q 174 -283 214 -318 q 110 -197 133 -247 q 88 -87 88 -147 q 110 21 88 -26 q 174 101 133 68 q 272 150 215 133 q 396 167 328 167 l 644 167 q 899 236 807 167 q 990 438 990 306 q 958 555 990 515 q 876 594 926 594 q 783 547 819 594 q 747 403 747 499 l 747 289 l 606 289 l 606 364 q 572 503 606 443 q 474 579 539 563 q 433 594 456 590 q 392 599 411 597 q 468 513 440 564 q 496 410 496 461 q 450 296 496 343 q 311 249 404 249 q 226 263 267 249 q 155 303 186 276 q 106 369 124 329 q 88 461 88 408 q 113 566 88 518 q 178 648 138 614 q 272 701 219 682 q 378 719 324 719 m 329 585 q 253 530 281 565 q 226 446 226 494 q 251 378 226 401 q 311 356 275 356 q 379 384 356 356 q 403 454 403 413 q 384 526 403 492 q 329 585 365 561 z "},"ஞ":{"ha":1772,"x_min":93,"x_max":1708,"o":"m 1447 707 l 1447 578 l 1299 578 l 1299 308 q 1370 395 1324 367 q 1479 424 1417 424 q 1572 402 1529 424 q 1644 342 1614 381 q 1691 253 1674 304 q 1708 144 1708 203 q 1663 -56 1708 36 q 1524 -215 1617 -149 q 1289 -320 1431 -282 q 956 -358 1147 -358 q 610 -317 768 -358 q 337 -194 451 -275 q 158 7 222 -112 q 93 282 93 126 q 131 515 93 411 q 232 715 169 619 l 364 675 q 272 480 301 574 q 242 282 242 386 q 296 58 242 153 q 446 -99 350 -37 q 672 -191 542 -161 q 956 -221 803 -221 q 1210 -195 1099 -221 q 1400 -122 1322 -169 q 1519 -6 1478 -74 q 1560 144 1560 61 q 1526 259 1560 219 q 1443 299 1492 299 q 1342 244 1378 299 q 1299 103 1306 190 l 1299 0 l 1156 0 l 1156 578 l 935 578 q 785 557 856 578 q 661 498 714 536 q 578 406 608 460 q 547 286 547 351 q 573 175 547 215 q 640 115 599 135 q 631 185 632 149 q 639 256 631 221 q 665 321 647 290 q 708 374 682 351 q 769 410 735 397 q 847 424 804 424 q 932 408 894 424 q 996 366 969 393 q 1036 301 1022 339 q 1050 221 1050 264 q 1028 128 1050 171 q 968 53 1007 85 q 875 5 929 22 q 757 -12 821 -12 q 624 11 689 -12 q 509 77 560 35 q 428 178 458 119 q 397 310 397 238 q 436 467 397 394 q 546 592 475 539 q 716 676 617 646 q 935 707 815 707 l 1447 707 m 825 299 q 751 266 779 299 q 717 190 724 233 q 714 144 714 167 q 719 101 714 122 q 742 99 731 99 q 764 99 753 99 q 810 106 786 99 q 855 128 835 114 q 888 166 875 143 q 901 218 901 189 q 882 276 901 254 q 825 299 863 299 z "},"ட":{"ha":963,"x_min":135,"x_max":946,"o":"m 278 707 l 278 131 l 946 131 l 946 0 l 135 0 l 135 707 l 278 707 z "},"ண":{"ha":2315,"x_min":72,"x_max":2285,"o":"m 672 719 q 868 689 774 719 q 1044 596 963 658 q 1183 688 1108 657 q 1350 719 1258 719 q 1506 688 1433 719 q 1640 597 1578 657 q 1799 681 1710 654 q 1986 707 1888 707 l 2285 707 l 2285 578 l 2135 578 l 2135 0 l 1992 0 l 1992 578 q 1856 563 1921 578 q 1736 524 1792 549 q 1833 381 1803 450 q 1864 233 1864 313 q 1846 129 1864 175 q 1796 52 1828 83 q 1721 4 1764 21 q 1626 -12 1678 -12 q 1532 4 1575 -12 q 1457 52 1489 21 q 1407 129 1425 83 q 1389 233 1389 175 q 1539 529 1389 404 q 1447 573 1497 557 q 1349 589 1397 589 q 1242 573 1294 589 q 1146 529 1189 557 q 1290 233 1290 389 q 1272 129 1290 175 q 1223 52 1254 83 q 1149 4 1192 21 q 1054 -12 1106 -12 q 959 4 1003 -12 q 884 52 915 21 q 835 129 853 83 q 817 233 817 175 q 851 385 817 313 q 950 521 885 457 q 821 571 890 553 q 672 589 751 589 q 485 566 568 589 q 343 503 401 543 q 253 407 285 463 q 222 286 222 351 q 248 175 222 215 q 314 115 274 135 q 306 185 307 149 q 314 256 306 221 q 340 321 322 290 q 383 374 357 351 q 444 410 410 397 q 522 424 479 424 q 607 408 569 424 q 671 366 644 393 q 711 301 697 339 q 725 221 725 264 q 703 128 725 171 q 643 53 682 85 q 550 5 604 22 q 432 -12 496 -12 q 297 11 363 -12 q 182 77 232 35 q 102 179 132 119 q 72 310 72 239 q 110 464 72 390 q 222 594 147 538 q 410 685 297 651 q 672 719 522 719 m 500 299 q 426 266 454 299 q 392 190 399 233 q 396 101 385 143 q 417 99 406 99 q 439 99 428 99 q 486 106 461 99 q 531 129 511 114 q 563 167 550 144 q 576 218 576 189 q 556 276 576 254 q 500 299 536 299 m 1047 458 q 981 353 1006 410 q 957 233 957 296 q 985 144 957 179 q 1054 108 1014 108 q 1122 144 1094 108 q 1150 233 1150 179 q 1123 353 1150 296 q 1047 458 1096 410 m 1635 461 q 1556 347 1581 404 q 1531 233 1531 290 q 1559 142 1531 176 q 1626 108 1588 108 q 1694 142 1667 108 q 1722 233 1722 176 q 1701 350 1722 292 q 1635 461 1679 408 z "},"த":{"ha":1099,"x_min":51,"x_max":1047,"o":"m 358 396 l 565 396 l 565 578 l 358 578 l 358 396 m 285 304 q 207 240 207 304 q 267 146 207 185 q 425 107 326 107 q 565 247 565 107 l 565 304 l 285 304 m 899 707 l 899 578 l 707 578 l 707 396 l 747 396 q 968 332 889 396 q 1047 144 1047 268 q 1009 -19 1047 54 q 901 -143 971 -92 q 734 -223 832 -194 q 518 -251 636 -251 l 257 -251 q 193 -301 193 -251 q 210 -352 193 -329 q 254 -399 226 -375 l 158 -460 q 83 -378 115 -426 q 51 -272 51 -329 q 99 -161 51 -201 q 236 -121 147 -121 l 518 -121 q 687 -101 615 -121 q 806 -45 758 -81 q 876 38 853 -10 q 900 143 900 86 q 857 266 900 228 q 747 304 814 304 l 707 304 l 707 246 q 633 50 707 113 q 439 -12 560 -12 q 281 11 351 -12 q 160 73 210 35 q 83 160 110 111 q 57 257 57 208 q 99 360 57 324 q 217 396 142 396 l 225 396 l 225 707 l 899 707 z "},"ந":{"ha":1147,"x_min":106,"x_max":1085,"o":"m 821 707 l 821 578 l 667 578 l 667 306 q 740 394 693 365 q 849 424 786 424 q 944 402 901 424 q 1019 342 988 381 q 1067 253 1050 304 q 1085 144 1085 203 q 1049 -14 1085 58 q 947 -139 1014 -86 q 786 -222 881 -192 q 574 -251 692 -251 l 308 -251 q 246 -304 246 -251 q 260 -352 246 -329 q 300 -399 274 -375 l 204 -460 q 133 -372 160 -418 q 106 -272 106 -325 q 115 -215 106 -242 q 147 -167 125 -187 q 203 -133 168 -146 q 289 -121 239 -121 l 576 -121 q 734 -100 667 -121 q 847 -43 801 -79 q 914 42 892 -7 q 936 144 936 90 q 899 259 936 219 q 815 299 863 299 q 709 239 751 299 q 667 79 667 179 l 667 0 l 525 0 l 525 578 l 278 578 l 278 0 l 135 0 l 135 707 l 821 707 z "},"ன":{"ha":1736,"x_min":72,"x_max":1706,"o":"m 672 719 q 883 685 789 719 q 1058 590 976 651 q 1217 676 1128 646 q 1407 707 1306 707 l 1706 707 l 1706 578 l 1557 578 l 1557 0 l 1414 0 l 1414 578 q 1158 521 1268 578 q 1254 383 1222 456 q 1286 233 1286 310 q 1268 129 1286 175 q 1218 52 1250 83 q 1143 4 1186 21 q 1049 -12 1100 -12 q 953 4 997 -12 q 878 52 910 21 q 829 129 847 83 q 811 233 811 175 q 847 390 811 318 q 950 521 883 463 q 825 570 892 551 q 672 589 758 589 q 486 566 569 589 q 344 503 403 543 q 254 407 286 463 q 222 286 222 351 q 248 175 222 215 q 315 115 274 135 q 306 185 307 149 q 314 256 306 221 q 340 321 322 290 q 383 374 357 351 q 444 410 410 397 q 522 424 479 424 q 607 408 569 424 q 671 366 644 393 q 711 301 697 339 q 725 221 725 264 q 703 128 725 171 q 643 53 682 85 q 550 5 604 22 q 432 -12 496 -12 q 299 11 364 -12 q 184 77 235 35 q 103 178 133 119 q 72 310 72 238 q 110 464 72 390 q 222 594 147 538 q 410 685 297 651 q 672 719 522 719 m 1054 458 q 976 349 1001 404 q 951 233 951 293 q 980 144 951 179 q 1049 108 1008 108 q 1117 144 1089 108 q 1144 233 1144 179 q 1054 458 1144 351 m 500 299 q 426 266 454 299 q 392 190 399 233 q 389 144 389 167 q 394 101 389 122 q 417 99 406 99 q 439 99 428 99 q 486 106 461 99 q 531 129 511 114 q 563 167 550 144 q 576 218 576 189 q 557 276 576 254 q 500 299 538 299 z "},"ப":{"ha":1071,"x_min":135,"x_max":936,"o":"m 278 707 l 278 131 l 794 131 l 794 707 l 936 707 l 936 0 l 135 0 l 135 707 l 278 707 z "},"ம":{"ha":1171,"x_min":135,"x_max":1097,"o":"m 278 707 l 278 131 l 543 131 l 543 507 q 596 666 543 613 q 744 719 649 719 q 874 687 811 719 q 988 599 938 654 q 1067 471 1038 543 q 1097 319 1097 399 q 1011 85 1097 171 q 769 0 925 0 l 135 0 l 135 707 l 278 707 m 753 589 q 704 568 724 589 q 685 507 685 547 l 685 131 l 769 131 q 900 177 853 131 q 947 319 947 224 q 930 419 947 371 q 885 506 913 468 q 822 566 857 543 q 753 589 788 589 z "},"ய":{"ha":1361,"x_min":126,"x_max":1225,"o":"m 269 707 l 269 265 q 299 154 269 190 q 394 118 329 118 q 453 130 425 118 q 501 167 481 142 q 535 230 522 192 q 550 321 549 268 l 550 707 l 693 707 l 693 131 l 1083 131 l 1083 707 l 1225 707 l 1225 0 l 550 0 l 550 147 q 522 85 539 114 q 481 34 506 56 q 422 0 456 13 q 346 -12 389 -12 q 186 48 246 -12 q 126 231 126 108 l 126 707 l 269 707 z "},"ர":{"ha":849,"x_min":135,"x_max":818,"o":"m 818 707 l 818 578 l 667 578 l 667 -90 l 318 -358 l 193 -285 l 525 -26 l 525 578 l 278 578 l 278 0 l 135 0 l 135 707 l 818 707 z "},"ற":{"ha":1168,"x_min":111,"x_max":1093,"o":"m 367 719 q 481 681 438 719 q 542 585 525 643 q 638 691 581 663 q 769 719 694 719 q 903 686 843 719 q 1005 594 963 653 q 1070 456 1047 535 q 1093 285 1093 376 q 1057 56 1093 156 q 953 -112 1021 -44 q 790 -216 886 -181 q 572 -251 693 -251 l 314 -251 q 250 -301 250 -251 q 267 -352 250 -329 q 313 -399 285 -375 l 217 -460 q 142 -378 174 -426 q 111 -272 111 -329 q 121 -215 111 -242 q 152 -167 131 -187 q 208 -133 174 -146 q 293 -121 243 -121 l 572 -121 q 747 -88 675 -121 q 862 -1 818 -56 q 925 128 906 54 q 944 285 944 201 q 931 408 944 353 q 894 504 918 464 q 839 567 871 544 q 769 589 807 589 q 683 546 714 589 q 651 425 651 503 l 651 0 l 510 0 l 510 425 q 482 546 510 503 q 392 589 454 589 q 299 545 329 589 q 269 425 269 501 l 269 0 l 126 0 l 126 425 q 192 650 126 581 q 367 719 257 719 z "},"ல":{"ha":1443,"x_min":72,"x_max":1372,"o":"m 596 719 q 772 693 699 719 q 893 616 846 667 q 963 492 940 565 q 985 325 985 418 l 985 211 q 1002 139 985 160 q 1054 118 1019 118 q 1114 139 1083 118 q 1168 196 1144 160 q 1207 278 1192 232 q 1222 378 1222 325 q 1184 542 1222 464 q 1075 685 1146 619 l 1249 719 q 1340 556 1308 643 q 1372 378 1372 468 q 1347 231 1372 301 q 1278 106 1322 160 q 1177 19 1235 51 q 1054 -12 1119 -12 q 896 48 950 -12 q 842 211 842 108 l 842 325 q 780 529 842 468 q 596 590 718 590 q 451 568 519 590 q 333 506 383 546 q 252 410 282 467 q 222 286 222 354 q 248 175 222 215 q 315 115 274 135 q 306 185 307 149 q 314 256 306 221 q 382 375 329 326 q 522 424 435 424 q 607 408 569 424 q 671 366 644 393 q 711 301 697 339 q 725 221 725 264 q 703 128 725 171 q 643 53 682 85 q 550 5 604 22 q 432 -12 496 -12 q 299 11 364 -12 q 184 77 235 35 q 103 178 133 119 q 72 310 72 238 q 112 471 72 396 q 222 601 151 546 q 388 688 292 656 q 596 719 483 719 m 500 299 q 426 266 454 299 q 392 190 399 233 q 389 144 389 167 q 394 101 389 122 q 417 99 406 99 q 439 99 428 99 q 485 106 461 99 q 530 128 510 114 q 563 166 550 143 q 576 218 576 189 q 557 276 576 254 q 500 299 538 299 z "},"ள":{"ha":1567,"x_min":72,"x_max":1531,"o":"m 510 719 q 633 700 578 719 q 732 649 689 681 q 805 574 775 617 q 853 485 835 532 l 853 707 l 1531 707 l 1531 578 l 1381 578 l 1381 0 l 1238 0 l 1238 578 l 985 578 l 985 0 l 853 0 l 853 222 q 830 375 853 307 q 765 491 807 443 q 665 564 724 539 q 535 589 606 589 q 409 565 467 589 q 310 501 351 542 q 245 404 268 460 q 222 286 222 349 q 248 175 222 215 q 315 115 274 135 q 306 185 307 149 q 314 256 306 221 q 340 321 322 290 q 383 374 357 351 q 444 410 410 397 q 522 424 479 424 q 607 408 569 424 q 671 366 644 393 q 711 301 697 339 q 725 221 725 264 q 703 128 725 171 q 643 53 682 85 q 550 5 604 22 q 432 -12 496 -12 q 299 11 364 -12 q 184 78 235 35 q 103 181 133 121 q 72 315 72 242 q 109 483 72 408 q 206 610 146 558 q 346 691 267 663 q 510 719 425 719 m 500 299 q 426 266 454 299 q 392 190 399 233 q 389 144 389 167 q 394 101 389 122 q 417 99 406 99 q 439 99 428 99 q 485 106 461 99 q 530 128 510 114 q 563 166 550 143 q 576 218 576 189 q 557 276 576 254 q 500 299 538 299 z "},"ழ":{"ha":1171,"x_min":126,"x_max":1097,"o":"m 278 707 l 278 131 l 543 131 l 543 507 q 596 666 543 613 q 744 719 649 719 q 874 687 811 719 q 988 599 938 654 q 1067 471 1038 543 q 1097 319 1097 399 q 1011 85 1097 171 q 769 0 925 0 l 681 0 l 681 -4 q 708 -92 681 -62 q 813 -121 736 -121 l 1004 -121 l 1004 -250 l 810 -250 q 729 -242 767 -250 q 588 -434 668 -371 q 390 -497 508 -497 q 286 -481 335 -497 q 202 -434 238 -464 q 147 -363 167 -404 q 126 -274 126 -322 q 144 -185 126 -226 q 185 -112 161 -143 l 329 -146 q 290 -209 304 -178 q 276 -276 276 -240 q 310 -347 276 -325 q 389 -368 343 -368 q 505 -321 449 -368 q 607 -175 561 -274 q 560 -97 575 -142 q 544 -4 544 -53 l 544 0 l 135 0 l 135 707 l 278 707 m 753 589 q 704 568 724 589 q 685 507 685 547 l 685 131 l 769 131 q 900 177 853 131 q 947 319 947 224 q 930 419 947 371 q 885 506 913 468 q 822 566 857 543 q 753 589 788 589 z "},"வ":{"ha":1551,"x_min":72,"x_max":1417,"o":"m 561 719 q 757 686 671 719 q 902 597 843 653 q 992 469 961 542 q 1024 315 1024 396 q 1015 219 1024 264 q 992 131 1007 174 l 1274 131 l 1274 707 l 1417 707 l 1417 0 l 931 0 l 819 60 q 860 174 847 114 q 874 293 874 235 q 853 407 874 353 q 792 501 832 461 q 693 565 751 542 q 558 589 635 589 q 428 567 489 589 q 321 505 367 544 q 249 409 275 465 q 222 286 222 353 q 249 176 222 217 q 315 115 275 135 q 306 185 307 149 q 314 256 306 221 q 340 321 322 290 q 383 374 357 351 q 444 410 410 397 q 522 424 479 424 q 607 408 569 424 q 671 366 644 393 q 711 301 697 339 q 725 221 725 264 q 703 128 725 171 q 643 53 682 85 q 550 5 604 22 q 432 -12 496 -12 q 299 11 364 -12 q 184 77 235 35 q 103 178 133 119 q 72 310 72 238 q 110 477 72 401 q 213 606 147 553 q 368 690 279 660 q 561 719 457 719 m 500 299 q 426 266 454 299 q 392 190 399 233 q 389 144 389 167 q 394 101 389 122 q 417 99 406 99 q 439 99 428 99 q 485 106 461 99 q 530 128 510 114 q 563 166 550 143 q 576 218 576 189 q 557 276 576 254 q 500 299 538 299 z "},"ஶ":{"ha":1551,"x_min":126,"x_max":1429,"o":"m 269 707 l 269 289 q 301 158 269 197 q 394 118 333 118 q 490 158 457 118 q 522 289 522 197 l 522 707 l 1429 707 l 1429 289 q 1408 156 1429 213 q 1349 61 1386 99 q 1263 6 1313 24 q 1160 -12 1214 -12 q 1054 6 1103 -12 q 969 61 1006 24 q 913 156 933 99 q 892 289 892 213 l 892 578 l 664 578 l 664 289 q 642 156 664 213 q 585 61 621 99 q 499 6 549 24 q 394 -12 450 -12 q 285 6 335 -12 q 201 61 236 24 q 146 156 165 99 q 126 289 126 213 l 126 707 l 269 707 m 1035 289 q 1067 158 1035 197 q 1160 118 1100 118 q 1253 158 1221 118 q 1286 289 1286 197 l 1286 578 l 1035 578 l 1035 289 z "},"ஷ":{"ha":1986,"x_min":72,"x_max":1865,"o":"m 560 719 q 756 686 669 719 q 902 597 843 653 q 992 469 961 542 q 1024 315 1024 396 q 1015 219 1024 264 q 992 131 1007 174 l 1319 131 l 1353 269 q 1253 291 1300 274 q 1172 337 1207 308 q 1118 405 1138 365 q 1099 493 1099 444 q 1119 586 1099 544 q 1174 658 1139 628 q 1256 703 1210 688 q 1354 719 1301 719 q 1433 704 1397 719 q 1496 663 1469 689 q 1538 601 1522 636 q 1553 524 1553 565 q 1551 495 1553 510 q 1546 465 1550 481 l 1525 379 q 1645 449 1586 403 q 1764 563 1704 496 l 1865 517 l 1865 0 l 1436 0 l 1364 -312 l 1217 -312 l 1289 0 l 931 0 l 819 60 q 860 174 847 114 q 874 293 874 235 q 853 407 874 353 q 792 501 832 461 q 693 565 751 542 q 558 589 635 589 q 428 567 489 589 q 321 505 367 544 q 249 409 275 465 q 222 286 222 353 q 248 175 222 215 q 315 115 274 135 q 306 185 307 149 q 314 256 306 221 q 340 321 322 290 q 383 374 357 351 q 444 410 410 397 q 522 424 479 424 q 607 408 569 424 q 671 366 644 393 q 711 301 697 339 q 725 221 725 264 q 703 128 725 171 q 643 53 682 85 q 550 5 604 22 q 432 -12 496 -12 q 299 11 364 -12 q 184 77 235 35 q 103 178 133 119 q 72 310 72 238 q 110 477 72 401 q 213 606 147 553 q 367 690 278 660 q 560 719 457 719 m 1468 131 l 1724 131 l 1724 400 q 1501 278 1618 300 l 1468 131 m 1356 589 q 1279 558 1310 589 q 1249 478 1249 526 q 1285 397 1249 429 q 1388 358 1321 364 l 1421 497 q 1424 513 1424 506 q 1424 526 1424 519 q 1405 572 1422 554 q 1356 589 1388 589 m 500 299 q 451 286 472 299 q 415 253 429 274 q 392 206 400 232 q 385 153 385 179 q 394 101 385 122 q 417 99 406 99 q 439 99 428 99 q 485 106 461 99 q 530 128 510 114 q 563 166 550 143 q 576 218 576 189 q 557 276 576 254 q 500 299 538 299 z "},"ஸ":{"ha":1850,"x_min":72,"x_max":1778,"o":"m 507 719 q 633 702 578 719 q 731 656 689 685 q 803 587 774 626 q 850 501 832 547 q 945 666 874 613 q 1113 719 1017 719 q 1310 642 1243 719 q 1378 425 1378 565 l 1378 211 q 1399 139 1378 160 q 1460 118 1421 118 q 1519 139 1489 118 q 1575 196 1550 160 q 1615 278 1600 232 q 1631 378 1631 325 q 1592 542 1631 464 q 1482 685 1553 619 l 1654 719 q 1746 556 1714 643 q 1778 378 1778 468 q 1753 231 1778 301 q 1685 106 1728 160 q 1583 19 1642 51 q 1460 -12 1525 -12 q 1369 1 1411 -12 q 1298 44 1328 15 q 1251 114 1268 72 q 1235 211 1235 156 l 1235 425 q 1201 549 1235 508 q 1113 589 1168 589 q 1026 549 1058 589 q 993 425 993 508 l 993 0 l 850 0 l 850 219 q 826 377 850 308 q 760 493 803 446 q 658 565 717 540 q 532 589 600 589 q 405 565 463 589 q 306 499 347 540 q 242 404 265 458 q 219 289 219 350 q 246 176 219 217 q 313 115 272 135 q 305 185 306 149 q 313 256 304 221 q 338 321 321 290 q 381 374 354 351 q 442 410 407 397 q 521 424 476 424 q 606 408 568 424 q 669 366 643 393 q 710 301 696 339 q 724 221 724 264 q 701 128 724 171 q 640 53 679 85 q 547 5 601 22 q 429 -12 493 -12 q 297 11 361 -12 q 183 78 233 35 q 103 181 133 121 q 72 315 72 242 q 108 483 72 408 q 204 610 144 557 q 342 691 264 663 q 507 719 421 719 m 499 299 q 424 266 451 299 q 389 190 396 233 q 387 144 386 167 q 394 101 388 122 q 415 99 404 99 q 438 99 426 99 q 484 106 460 99 q 528 128 508 114 q 562 166 549 143 q 575 218 575 189 q 555 276 575 254 q 499 299 535 299 z "},"ஹ":{"ha":2319,"x_min":74,"x_max":2246,"o":"m 1518 719 q 1633 681 1589 719 q 1693 585 1676 643 q 1790 691 1733 663 q 1922 719 1847 719 q 2054 686 1994 719 q 2157 594 2114 653 q 2223 456 2200 535 q 2246 285 2246 376 q 2210 56 2246 156 q 2106 -112 2174 -44 q 1942 -216 2039 -181 q 1724 -251 1844 -251 l 276 -251 q 214 -301 214 -251 q 231 -352 214 -329 q 276 -399 247 -375 l 181 -460 q 105 -378 136 -426 q 74 -272 74 -329 q 83 -215 74 -242 q 115 -167 93 -187 q 172 -133 136 -146 q 257 -121 207 -121 l 1724 -121 q 1898 -88 1826 -121 q 2013 -1 1969 -56 q 2076 128 2057 54 q 2096 285 2096 201 q 2083 408 2096 353 q 2047 504 2069 464 q 1992 567 2024 544 q 1922 589 1960 589 q 1835 546 1865 589 q 1804 425 1804 503 l 1804 0 l 1663 0 l 1663 425 q 1634 546 1663 503 q 1543 589 1606 589 q 1451 545 1481 589 q 1421 425 1421 501 l 1421 0 l 935 0 l 824 60 q 864 174 850 114 q 878 293 878 235 q 857 407 878 353 q 796 501 836 461 q 697 565 756 542 q 561 589 638 589 q 431 567 492 589 q 324 505 369 544 q 253 409 279 465 q 226 286 226 353 q 253 176 226 217 q 319 115 279 135 q 310 185 311 149 q 318 256 310 221 q 344 321 326 290 q 387 374 361 351 q 448 410 413 397 q 526 424 483 424 q 611 408 574 424 q 675 366 649 393 q 715 301 701 339 q 729 221 729 264 q 708 128 729 171 q 647 53 686 85 q 554 5 608 22 q 435 -12 500 -12 q 302 11 367 -12 q 188 77 238 35 q 107 178 138 119 q 76 310 76 238 q 114 477 76 401 q 217 606 151 553 q 372 690 283 660 q 565 719 461 719 q 761 686 675 719 q 906 597 847 653 q 997 469 965 542 q 1028 315 1028 396 q 1019 219 1028 264 q 996 131 1011 174 l 1278 131 l 1278 425 q 1343 650 1278 581 q 1518 719 1408 719 m 504 299 q 429 266 457 299 q 394 190 401 233 q 392 144 392 167 q 399 101 393 122 q 421 99 410 99 q 443 99 432 99 q 490 106 465 99 q 534 128 514 114 q 567 166 554 143 q 581 218 581 189 q 561 276 581 254 q 504 299 542 299 z "},"ா":{"ha":849,"x_min":135,"x_max":818,"o":"m 818 707 l 818 578 l 667 578 l 667 0 l 525 0 l 525 578 l 278 578 l 278 0 l 135 0 l 135 707 l 818 707 z "},"ி":{"ha":363,"x_min":-568,"x_max":226,"o":"m -212 1097 q -21 1062 -103 1097 q 116 960 61 1026 q 199 797 171 893 q 226 579 226 701 l 226 0 l 85 0 l 85 579 q 65 755 85 682 q 10 874 46 828 q -80 940 -26 919 q -201 961 -133 961 q -290 948 -250 961 q -361 912 -331 935 q -408 856 -392 889 q -425 785 -425 824 q -389 676 -425 725 l -417 676 q -478 699 -450 682 q -526 739 -506 715 q -557 792 -546 763 q -568 854 -568 822 q -542 951 -568 906 q -469 1028 -517 996 q -357 1078 -422 1060 q -212 1097 -292 1097 z "},"ீ":{"ha":663,"x_min":29,"x_max":644,"o":"m 346 1174 q 469 1156 414 1174 q 564 1107 525 1138 q 624 1037 603 1076 q 644 956 644 997 q 591 834 644 881 q 442 788 538 788 q 364 799 397 788 q 308 831 331 811 q 276 878 286 851 q 265 933 265 904 q 324 1063 265 1007 q 208 1004 254 1051 q 163 883 163 957 q 198 781 163 825 q 300 706 233 736 l 258 689 q 164 715 206 694 q 92 766 122 736 q 45 835 61 796 q 29 917 29 874 q 54 1019 29 972 q 122 1100 79 1065 q 222 1154 164 1135 q 346 1174 279 1174 m 388 1068 q 361 1017 372 1044 q 350 965 350 990 q 370 906 350 929 q 426 883 390 883 q 485 906 464 883 q 507 961 507 929 q 470 1033 507 1006 q 388 1068 433 1060 z "},"ு":{"ha":607,"x_min":-197,"x_max":610,"o":"m 383 261 q 290 279 331 261 q 219 328 249 297 q 175 400 190 358 q 160 489 160 442 l 160 578 l -197 578 l -197 707 l 350 707 q 453 693 406 707 q 536 652 501 679 q 590 583 571 625 q 610 485 610 540 q 594 395 610 436 q 548 324 578 354 q 476 278 518 294 q 383 261 435 261 m 290 578 l 290 475 q 313 398 290 424 q 374 372 335 372 q 440 402 414 372 q 465 481 465 432 q 350 578 465 578 l 290 578 z "},"ூ":{"ha":1017,"x_min":-269,"x_max":961,"o":"m 558 933 q 715 902 642 933 q 844 815 789 871 q 930 678 899 758 q 961 500 961 597 q 932 310 961 397 q 844 158 903 222 q 696 56 785 93 q 488 19 607 19 q 207 98 331 19 q 15 322 83 176 l 113 392 q 265 204 174 258 q 476 150 357 150 q 623 176 560 150 q 729 247 686 201 q 794 358 772 293 q 817 500 817 422 q 797 627 817 571 q 741 722 776 683 q 659 782 706 761 q 558 803 613 803 q 449 777 499 803 q 368 707 400 751 l 436 707 q 619 654 549 707 q 689 497 689 601 q 674 411 689 451 q 629 341 658 371 q 558 294 600 311 q 464 278 517 278 q 369 296 411 278 q 299 344 328 314 q 254 417 269 375 q 239 507 239 458 l 239 578 l -269 578 l -269 707 l 246 707 q 358 874 274 814 q 558 933 442 933 m 369 492 q 392 415 369 440 q 454 390 415 390 q 519 419 494 390 q 544 496 544 449 q 436 585 544 585 l 369 585 l 369 492 z "},"ெ":{"ha":1150,"x_min":76,"x_max":1014,"o":"m 690 1097 q 831 1073 769 1097 q 932 1003 892 1049 q 993 892 972 957 q 1014 746 1014 826 l 1014 0 l 872 0 l 872 747 q 823 912 872 863 q 690 961 774 961 q 531 917 613 961 q 381 796 449 872 q 269 616 313 719 q 225 394 225 513 q 257 215 225 283 q 338 117 289 147 q 330 185 331 149 q 339 256 329 221 q 364 321 347 290 q 407 374 381 351 q 468 410 433 397 q 546 424 503 424 q 631 408 593 424 q 696 366 669 393 q 736 301 722 339 q 750 221 750 264 q 728 128 750 171 q 668 53 707 85 q 575 5 629 22 q 456 -12 521 -12 q 316 17 385 -12 q 194 103 247 46 q 109 242 142 160 q 76 433 76 325 q 124 692 76 571 q 256 903 172 813 q 451 1045 339 993 q 690 1097 563 1097 m 524 299 q 450 266 478 299 q 415 190 422 233 q 419 101 408 143 q 440 99 429 99 q 463 99 451 99 q 509 106 485 99 q 553 128 533 114 q 587 166 574 143 q 600 218 600 189 q 581 276 600 254 q 524 299 561 299 z "},"ே":{"ha":908,"x_min":57,"x_max":850,"o":"m 535 1097 q 665 1078 607 1097 q 765 1026 724 1058 q 828 951 806 993 q 850 863 850 908 q 794 733 850 782 q 638 683 738 683 q 555 697 590 683 q 495 731 519 710 q 458 781 471 753 q 446 842 446 810 q 465 922 446 883 q 515 992 485 961 q 403 944 458 982 q 306 847 349 907 q 236 709 263 788 q 210 540 210 631 q 227 383 210 450 q 274 265 244 315 q 343 182 304 215 q 424 128 382 149 q 429 271 410 199 q 503 387 449 342 q 646 432 558 432 q 729 415 692 432 q 794 370 767 399 q 835 303 821 342 q 850 221 850 264 q 828 128 850 171 q 767 53 807 85 q 674 5 728 22 q 556 -12 619 -12 q 381 24 469 -12 q 221 129 293 60 q 103 302 149 199 q 57 540 57 406 q 94 763 57 661 q 197 940 132 865 q 349 1056 263 1014 q 535 1097 436 1097 m 500 196 q 497 149 497 172 q 501 106 497 126 q 564 99 526 99 q 613 107 589 99 q 658 131 638 115 q 690 169 678 146 q 701 221 701 192 q 679 285 701 261 q 619 308 657 308 q 540 274 571 308 q 500 196 508 240 m 711 867 q 699 914 711 893 q 669 950 688 935 q 626 976 650 965 q 575 990 601 986 q 544 933 556 965 q 533 874 533 901 q 558 806 533 832 q 624 779 582 779 q 687 803 663 779 q 711 867 711 826 z "},"ை":{"ha":1665,"x_min":72,"x_max":1579,"o":"m 613 719 q 795 693 706 719 q 963 619 885 667 q 1085 692 1018 665 q 1226 719 1151 719 q 1366 693 1301 719 q 1478 617 1431 667 q 1552 499 1525 568 q 1579 344 1579 429 q 1540 158 1579 251 q 1426 -10 1501 65 l 1306 38 q 1407 194 1378 121 q 1436 349 1436 268 q 1423 442 1436 397 q 1384 520 1410 486 q 1320 574 1358 554 q 1232 594 1282 594 q 1147 580 1189 594 q 1068 540 1106 565 q 1174 398 1135 476 q 1214 232 1214 319 q 1197 133 1214 178 q 1151 55 1181 88 q 1082 5 1122 22 q 994 -12 1042 -12 q 909 5 949 -12 q 840 55 869 22 q 793 133 810 88 q 776 232 776 178 q 803 385 776 308 q 876 528 829 461 q 751 573 818 557 q 613 589 683 589 q 453 566 526 589 q 326 503 379 543 q 242 407 272 463 q 211 286 211 351 q 237 175 211 215 q 303 115 263 135 q 289 181 289 144 q 305 278 289 233 q 349 355 321 322 q 415 406 376 388 q 499 424 453 424 q 574 408 539 424 q 633 366 608 393 q 673 301 658 339 q 688 221 688 264 q 669 128 688 171 q 615 53 650 85 q 531 5 581 22 q 421 -12 482 -12 q 290 11 353 -12 q 178 77 226 35 q 101 178 131 119 q 72 310 72 238 q 108 464 72 390 q 213 594 144 538 q 383 685 282 651 q 613 719 483 719 m 1089 232 q 1060 356 1089 299 q 981 458 1031 414 q 922 352 943 410 q 900 232 900 294 q 926 144 900 176 q 993 111 953 111 q 1061 144 1033 111 q 1089 232 1089 176 m 489 299 q 440 286 461 299 q 403 253 418 274 q 381 206 389 232 q 374 153 374 179 q 385 101 374 126 q 406 99 394 99 q 428 99 417 99 q 475 106 450 99 q 519 129 500 114 q 552 167 539 144 q 565 218 565 189 q 547 276 565 254 q 489 299 528 299 z "},"ௌ":{"ha":3331,"x_min":76,"x_max":3294,"o":"m 1242 588 q 1306 624 1269 610 q 1379 644 1342 639 l 1396 511 q 1325 482 1354 507 l 1242 588 m 1133 401 q 1154 474 1139 439 q 1192 538 1169 510 l 1296 454 q 1268 389 1275 425 l 1133 401 m 1451 643 q 1588 588 1529 632 l 1507 479 q 1436 510 1476 506 l 1451 643 m 1638 535 q 1676 471 1661 506 q 1694 399 1690 436 l 1561 383 q 1551 419 1558 404 q 1533 451 1544 435 l 1638 535 m 1585 140 q 1522 103 1557 118 q 1450 85 1486 89 l 1432 217 q 1503 246 1472 222 l 1585 140 m 1694 328 q 1636 190 1683 249 l 1531 272 q 1550 306 1543 288 q 1560 343 1557 325 l 1694 328 m 1190 193 q 1153 256 1168 221 q 1133 329 1139 292 l 1267 346 q 1276 310 1269 325 q 1294 276 1283 294 l 1190 193 m 1378 85 q 1303 106 1339 90 q 1240 143 1268 121 l 1324 246 q 1393 218 1351 222 l 1378 85 m 690 1097 q 831 1073 769 1097 q 932 1003 892 1049 q 993 892 972 957 q 1014 746 1014 826 l 1014 0 l 872 0 l 872 747 q 823 912 872 863 q 690 961 774 961 q 531 917 613 961 q 381 796 449 872 q 269 616 313 719 q 225 394 225 513 q 257 215 225 283 q 338 117 289 147 q 330 185 331 149 q 339 256 329 221 q 364 321 347 290 q 407 374 381 351 q 468 410 433 397 q 546 424 503 424 q 631 408 593 424 q 696 366 669 393 q 736 301 722 339 q 750 221 750 264 q 728 128 750 171 q 668 53 707 85 q 575 5 629 22 q 456 -12 521 -12 q 316 17 385 -12 q 194 103 247 46 q 109 242 142 160 q 76 433 76 325 q 124 692 76 571 q 256 903 172 813 q 451 1045 339 993 q 690 1097 563 1097 m 524 299 q 450 266 478 299 q 415 190 422 233 q 419 101 408 143 q 440 99 429 99 q 463 99 451 99 q 509 106 485 99 q 553 128 533 114 q 587 166 574 143 q 600 218 600 189 q 581 276 600 254 q 524 299 561 299 m 2274 719 q 2397 700 2342 719 q 2496 649 2453 681 q 2569 574 2539 617 q 2617 485 2599 532 l 2617 707 l 3294 707 l 3294 578 l 3144 578 l 3144 0 l 3001 0 l 3001 578 l 2749 578 l 2749 0 l 2617 0 l 2617 222 q 2594 375 2617 307 q 2529 491 2571 443 q 2428 564 2488 539 q 2299 589 2369 589 q 2173 565 2231 589 q 2074 501 2115 542 q 2009 404 2032 460 q 1986 286 1986 349 q 2012 175 1986 215 q 2079 115 2038 135 q 2070 185 2071 149 q 2078 256 2069 221 q 2103 321 2086 290 q 2147 374 2121 351 q 2208 410 2174 397 q 2286 424 2243 424 q 2371 408 2333 424 q 2435 366 2408 393 q 2475 301 2461 339 q 2489 221 2489 264 q 2467 128 2489 171 q 2407 53 2446 85 q 2314 5 2368 22 q 2196 -12 2260 -12 q 2063 11 2128 -12 q 1948 78 1999 35 q 1867 181 1897 121 q 1836 315 1836 242 q 1873 483 1836 408 q 1970 610 1910 558 q 2110 691 2031 663 q 2274 719 2189 719 m 2264 299 q 2190 266 2218 299 q 2156 190 2163 233 q 2153 144 2153 167 q 2158 101 2153 122 q 2181 99 2169 99 q 2203 99 2192 99 q 2249 106 2225 99 q 2294 128 2274 114 q 2327 166 2314 143 q 2340 218 2340 189 q 2321 276 2340 254 q 2264 299 2301 299 z "},"ௗ":{"ha":1567,"x_min":72,"x_max":1531,"o":"m 510 719 q 633 700 578 719 q 732 649 689 681 q 805 574 775 617 q 853 485 835 532 l 853 707 l 1531 707 l 1531 578 l 1381 578 l 1381 0 l 1238 0 l 1238 578 l 985 578 l 985 0 l 853 0 l 853 222 q 830 375 853 307 q 765 491 807 443 q 665 564 724 539 q 535 589 606 589 q 409 565 467 589 q 310 501 351 542 q 245 404 268 460 q 222 286 222 349 q 248 175 222 215 q 315 115 274 135 q 306 185 307 149 q 314 256 306 221 q 340 321 322 290 q 383 374 357 351 q 444 410 410 397 q 522 424 479 424 q 607 408 569 424 q 671 366 644 393 q 711 301 697 339 q 725 221 725 264 q 703 128 725 171 q 643 53 682 85 q 550 5 604 22 q 432 -12 496 -12 q 299 11 364 -12 q 184 78 235 35 q 103 181 133 121 q 72 315 72 242 q 109 483 72 408 q 206 610 146 558 q 346 691 267 663 q 510 719 425 719 m 500 299 q 426 266 454 299 q 392 190 399 233 q 389 144 389 167 q 394 101 389 122 q 417 99 406 99 q 439 99 428 99 q 485 106 461 99 q 530 128 510 114 q 563 166 550 143 q 576 218 576 189 q 557 276 576 254 q 500 299 538 299 z "},"ொ":{"ha":2603,"x_min":76,"x_max":2574,"o":"m 1260 588 q 1323 624 1288 610 q 1396 644 1358 639 l 1413 511 q 1342 482 1371 507 l 1260 588 m 1151 401 q 1172 474 1157 439 q 1210 538 1188 510 l 1313 454 q 1295 423 1301 439 q 1285 389 1289 407 l 1151 401 m 1469 643 q 1604 588 1546 632 l 1525 479 q 1454 510 1493 506 l 1469 643 m 1656 535 q 1713 399 1701 476 l 1578 383 q 1568 419 1575 404 q 1550 451 1561 435 l 1656 535 m 1601 140 q 1539 103 1574 118 q 1467 85 1504 89 l 1449 217 q 1521 246 1490 222 l 1601 140 m 1713 328 q 1692 253 1707 289 q 1653 190 1676 218 l 1547 272 q 1567 306 1560 288 q 1578 343 1575 325 l 1713 328 m 1208 193 q 1172 256 1186 221 q 1151 329 1157 292 l 1285 346 q 1294 310 1288 325 q 1311 276 1300 294 l 1208 193 m 1394 85 q 1321 106 1357 90 q 1257 143 1285 121 l 1342 246 q 1411 218 1367 222 l 1394 85 m 690 1097 q 831 1073 769 1097 q 932 1003 892 1049 q 993 892 972 957 q 1014 746 1014 826 l 1014 0 l 872 0 l 872 747 q 823 912 872 863 q 690 961 774 961 q 531 917 613 961 q 381 796 449 872 q 269 616 313 719 q 225 394 225 513 q 257 215 225 283 q 338 117 289 147 q 330 185 331 149 q 339 256 329 221 q 364 321 347 290 q 407 374 381 351 q 468 410 433 397 q 546 424 503 424 q 631 408 593 424 q 696 366 669 393 q 736 301 722 339 q 750 221 750 264 q 728 128 750 171 q 668 53 707 85 q 575 5 629 22 q 456 -12 521 -12 q 316 17 385 -12 q 194 103 247 46 q 109 242 142 160 q 76 433 76 325 q 124 692 76 571 q 256 903 172 813 q 451 1045 339 993 q 690 1097 563 1097 m 524 299 q 450 266 478 299 q 415 190 422 233 q 419 101 408 143 q 440 99 429 99 q 463 99 451 99 q 509 106 485 99 q 553 128 533 114 q 587 166 574 143 q 600 218 600 189 q 581 276 600 254 q 524 299 561 299 m 2574 707 l 2574 578 l 2422 578 l 2422 0 l 2281 0 l 2281 578 l 2033 578 l 2033 0 l 1890 0 l 1890 707 l 2574 707 z "},"ோ":{"ha":2421,"x_min":57,"x_max":2390,"o":"m 1082 588 q 1146 624 1110 610 q 1221 644 1182 639 l 1236 511 q 1165 482 1194 507 l 1082 588 m 975 401 q 995 474 979 439 q 1033 538 1011 510 l 1136 454 q 1108 389 1115 425 l 975 401 m 1292 643 q 1428 588 1369 632 l 1347 479 q 1276 510 1317 506 l 1292 643 m 1478 535 q 1516 471 1501 506 q 1535 399 1531 436 l 1401 383 q 1392 419 1399 404 q 1375 451 1386 435 l 1478 535 m 1425 140 q 1362 103 1397 118 q 1290 85 1326 89 l 1274 217 q 1310 226 1293 219 q 1343 246 1328 233 l 1425 140 m 1535 328 q 1515 253 1531 289 q 1476 190 1500 218 l 1371 272 q 1390 306 1383 288 q 1400 343 1397 325 l 1535 328 m 1031 193 q 994 256 1010 221 q 975 329 979 292 l 1107 346 q 1117 310 1110 325 q 1135 276 1124 294 l 1031 193 m 1218 85 q 1144 106 1179 90 q 1081 143 1108 121 l 1164 246 q 1233 218 1194 222 l 1218 85 m 535 1097 q 665 1078 607 1097 q 765 1026 724 1058 q 828 951 806 993 q 850 863 850 908 q 794 733 850 782 q 638 683 738 683 q 555 697 590 683 q 495 731 519 710 q 458 781 471 753 q 446 842 446 810 q 465 922 446 883 q 515 992 485 961 q 403 944 458 982 q 306 847 349 907 q 236 709 263 788 q 210 540 210 631 q 227 383 210 450 q 274 265 244 315 q 343 182 304 215 q 424 128 382 149 q 429 271 410 199 q 503 387 449 342 q 646 432 558 432 q 729 415 692 432 q 794 370 767 399 q 835 303 821 342 q 850 221 850 264 q 828 128 850 171 q 767 53 807 85 q 674 5 728 22 q 556 -12 619 -12 q 381 24 469 -12 q 221 129 293 60 q 103 302 149 199 q 57 540 57 406 q 94 763 57 661 q 197 940 132 865 q 349 1056 263 1014 q 535 1097 436 1097 m 500 196 q 497 149 497 172 q 501 106 497 126 q 564 99 526 99 q 613 107 589 99 q 658 131 638 115 q 690 169 678 146 q 701 221 701 192 q 679 285 701 261 q 619 308 657 308 q 540 274 571 308 q 500 196 508 240 m 711 867 q 699 914 711 893 q 669 950 688 935 q 626 976 650 965 q 575 990 601 986 q 544 933 556 965 q 533 874 533 901 q 558 806 533 832 q 624 779 582 779 q 687 803 663 779 q 711 867 711 826 m 2390 707 l 2390 578 l 2239 578 l 2239 0 l 2097 0 l 2097 578 l 1850 578 l 1850 0 l 1707 0 l 1707 707 l 2390 707 z "}}}
